<svg width="352" height="340" viewBox="0 0 352 340" fill="none" xmlns="http://www.w3.org/2000/svg">
<g filter="url(#filter0_d)">
<rect x="12" y="8" width="328" height="316" rx="10" fill="white"/>
</g>
<path d="M293.035 291V289.684H295.779V282.376H295.667L293.399 284.798L292.433 283.93L294.925 281.228H297.333V289.684H299.713V291H293.035Z" fill="#3C3844"/>
<path d="M251.163 285.246C251.77 285.246 252.218 285.12 252.507 284.868C252.797 284.607 252.941 284.275 252.941 283.874V283.776C252.941 283.328 252.801 282.987 252.521 282.754C252.241 282.511 251.863 282.39 251.387 282.39C250.921 282.39 250.524 282.497 250.197 282.712C249.871 282.917 249.595 283.207 249.371 283.58L248.321 282.67C248.471 282.455 248.639 282.25 248.825 282.054C249.012 281.858 249.231 281.69 249.483 281.55C249.735 281.401 250.02 281.284 250.337 281.2C250.655 281.107 251.019 281.06 251.429 281.06C251.887 281.06 252.311 281.116 252.703 281.228C253.095 281.34 253.431 281.508 253.711 281.732C253.991 281.947 254.211 282.213 254.369 282.53C254.528 282.838 254.607 283.188 254.607 283.58C254.607 283.888 254.556 284.168 254.453 284.42C254.36 284.672 254.225 284.896 254.047 285.092C253.879 285.279 253.679 285.433 253.445 285.554C253.221 285.675 252.983 285.764 252.731 285.82V285.89C253.011 285.946 253.273 286.039 253.515 286.17C253.767 286.291 253.987 286.455 254.173 286.66C254.36 286.856 254.505 287.094 254.607 287.374C254.719 287.645 254.775 287.957 254.775 288.312C254.775 288.741 254.691 289.133 254.523 289.488C254.355 289.833 254.117 290.132 253.809 290.384C253.511 290.636 253.147 290.832 252.717 290.972C252.288 291.103 251.812 291.168 251.289 291.168C250.832 291.168 250.431 291.117 250.085 291.014C249.74 290.921 249.432 290.795 249.161 290.636C248.9 290.468 248.667 290.281 248.461 290.076C248.265 289.861 248.093 289.642 247.943 289.418L249.105 288.508C249.227 288.704 249.353 288.886 249.483 289.054C249.623 289.213 249.777 289.353 249.945 289.474C250.123 289.586 250.319 289.675 250.533 289.74C250.757 289.805 251.009 289.838 251.289 289.838C251.887 289.838 252.344 289.698 252.661 289.418C252.979 289.129 253.137 288.732 253.137 288.228V288.13C253.137 287.626 252.969 287.243 252.633 286.982C252.297 286.721 251.821 286.59 251.205 286.59H250.169V285.246H251.163ZM257.342 291V289.684H260.086V282.376H259.974L257.706 284.798L256.74 283.93L259.232 281.228H261.64V289.684H264.02V291H257.342Z" fill="#7A7585"/>
<path d="M211.163 285.246C211.77 285.246 212.218 285.12 212.507 284.868C212.797 284.607 212.941 284.275 212.941 283.874V283.776C212.941 283.328 212.801 282.987 212.521 282.754C212.241 282.511 211.863 282.39 211.387 282.39C210.921 282.39 210.524 282.497 210.197 282.712C209.871 282.917 209.595 283.207 209.371 283.58L208.321 282.67C208.471 282.455 208.639 282.25 208.825 282.054C209.012 281.858 209.231 281.69 209.483 281.55C209.735 281.401 210.02 281.284 210.337 281.2C210.655 281.107 211.019 281.06 211.429 281.06C211.887 281.06 212.311 281.116 212.703 281.228C213.095 281.34 213.431 281.508 213.711 281.732C213.991 281.947 214.211 282.213 214.369 282.53C214.528 282.838 214.607 283.188 214.607 283.58C214.607 283.888 214.556 284.168 214.453 284.42C214.36 284.672 214.225 284.896 214.047 285.092C213.879 285.279 213.679 285.433 213.445 285.554C213.221 285.675 212.983 285.764 212.731 285.82V285.89C213.011 285.946 213.273 286.039 213.515 286.17C213.767 286.291 213.987 286.455 214.173 286.66C214.36 286.856 214.505 287.094 214.607 287.374C214.719 287.645 214.775 287.957 214.775 288.312C214.775 288.741 214.691 289.133 214.523 289.488C214.355 289.833 214.117 290.132 213.809 290.384C213.511 290.636 213.147 290.832 212.717 290.972C212.288 291.103 211.812 291.168 211.289 291.168C210.832 291.168 210.431 291.117 210.085 291.014C209.74 290.921 209.432 290.795 209.161 290.636C208.9 290.468 208.667 290.281 208.461 290.076C208.265 289.861 208.093 289.642 207.943 289.418L209.105 288.508C209.227 288.704 209.353 288.886 209.483 289.054C209.623 289.213 209.777 289.353 209.945 289.474C210.123 289.586 210.319 289.675 210.533 289.74C210.757 289.805 211.009 289.838 211.289 289.838C211.887 289.838 212.344 289.698 212.661 289.418C212.979 289.129 213.137 288.732 213.137 288.228V288.13C213.137 287.626 212.969 287.243 212.633 286.982C212.297 286.721 211.821 286.59 211.205 286.59H210.169V285.246H211.163ZM220.31 291.168C219.703 291.168 219.176 291.056 218.728 290.832C218.28 290.599 217.911 290.267 217.622 289.838C217.333 289.409 217.118 288.881 216.978 288.256C216.838 287.631 216.768 286.917 216.768 286.114C216.768 285.321 216.838 284.611 216.978 283.986C217.118 283.351 217.333 282.819 217.622 282.39C217.911 281.961 218.28 281.634 218.728 281.41C219.176 281.177 219.703 281.06 220.31 281.06C221.523 281.06 222.415 281.503 222.984 282.39C223.563 283.277 223.852 284.518 223.852 286.114C223.852 287.71 223.563 288.951 222.984 289.838C222.415 290.725 221.523 291.168 220.31 291.168ZM220.31 289.824C220.646 289.824 220.931 289.759 221.164 289.628C221.407 289.488 221.603 289.292 221.752 289.04C221.901 288.788 222.009 288.489 222.074 288.144C222.139 287.789 222.172 287.397 222.172 286.968V285.26C222.172 284.831 222.139 284.443 222.074 284.098C222.009 283.743 221.901 283.44 221.752 283.188C221.603 282.936 221.407 282.745 221.164 282.614C220.931 282.474 220.646 282.404 220.31 282.404C219.974 282.404 219.685 282.474 219.442 282.614C219.209 282.745 219.017 282.936 218.868 283.188C218.719 283.44 218.611 283.743 218.546 284.098C218.481 284.443 218.448 284.831 218.448 285.26V286.968C218.448 287.397 218.481 287.789 218.546 288.144C218.611 288.489 218.719 288.788 218.868 289.04C219.017 289.292 219.209 289.488 219.442 289.628C219.685 289.759 219.974 289.824 220.31 289.824Z" fill="#7A7585"/>
<path d="M175.069 291H168.433V289.488L171.555 286.702C172.05 286.254 172.428 285.829 172.689 285.428C172.96 285.017 173.095 284.588 173.095 284.14V283.958C173.095 283.482 172.951 283.109 172.661 282.838C172.381 282.567 171.999 282.432 171.513 282.432C171.243 282.432 171.005 282.474 170.799 282.558C170.603 282.633 170.431 282.74 170.281 282.88C170.132 283.02 170.006 283.183 169.903 283.37C169.81 283.557 169.735 283.757 169.679 283.972L168.293 283.44C168.396 283.132 168.536 282.838 168.713 282.558C168.891 282.269 169.115 282.012 169.385 281.788C169.656 281.564 169.973 281.387 170.337 281.256C170.711 281.125 171.145 281.06 171.639 281.06C172.134 281.06 172.577 281.135 172.969 281.284C173.361 281.424 173.688 281.625 173.949 281.886C174.22 282.138 174.425 282.441 174.565 282.796C174.705 283.151 174.775 283.538 174.775 283.958C174.775 284.35 174.715 284.714 174.593 285.05C174.472 285.386 174.304 285.703 174.089 286.002C173.875 286.301 173.623 286.585 173.333 286.856C173.053 287.127 172.755 287.402 172.437 287.682L170.141 289.656H175.069V291ZM183.726 284.868C183.726 285.577 183.619 286.245 183.404 286.87C183.189 287.495 182.914 288.069 182.578 288.592C182.242 289.115 181.864 289.581 181.444 289.992C181.033 290.403 180.627 290.739 180.226 291H178.126C178.677 290.599 179.171 290.211 179.61 289.838C180.049 289.465 180.431 289.082 180.758 288.69C181.085 288.298 181.355 287.883 181.57 287.444C181.794 287.005 181.967 286.525 182.088 286.002L181.99 285.974C181.887 286.17 181.766 286.357 181.626 286.534C181.495 286.702 181.337 286.851 181.15 286.982C180.973 287.113 180.767 287.215 180.534 287.29C180.301 287.365 180.03 287.402 179.722 287.402C179.311 287.402 178.929 287.332 178.574 287.192C178.229 287.052 177.925 286.851 177.664 286.59C177.412 286.319 177.211 286.002 177.062 285.638C176.922 285.265 176.852 284.845 176.852 284.378C176.852 283.893 176.931 283.445 177.09 283.034C177.258 282.623 177.491 282.273 177.79 281.984C178.089 281.695 178.448 281.471 178.868 281.312C179.288 281.144 179.759 281.06 180.282 281.06C180.823 281.06 181.304 281.149 181.724 281.326C182.153 281.503 182.513 281.76 182.802 282.096C183.101 282.423 183.329 282.819 183.488 283.286C183.647 283.753 183.726 284.28 183.726 284.868ZM180.282 286.128C180.851 286.128 181.295 285.979 181.612 285.68C181.929 285.372 182.088 284.924 182.088 284.336V284.14C182.088 283.552 181.929 283.109 181.612 282.81C181.295 282.502 180.851 282.348 180.282 282.348C179.713 282.348 179.269 282.502 178.952 282.81C178.635 283.109 178.476 283.552 178.476 284.14V284.336C178.476 284.924 178.635 285.372 178.952 285.68C179.269 285.979 179.713 286.128 180.282 286.128Z" fill="#7A7585"/>
<path d="M135.069 291H128.433V289.488L131.555 286.702C132.05 286.254 132.428 285.829 132.689 285.428C132.96 285.017 133.095 284.588 133.095 284.14V283.958C133.095 283.482 132.951 283.109 132.661 282.838C132.381 282.567 131.999 282.432 131.513 282.432C131.243 282.432 131.005 282.474 130.799 282.558C130.603 282.633 130.431 282.74 130.281 282.88C130.132 283.02 130.006 283.183 129.903 283.37C129.81 283.557 129.735 283.757 129.679 283.972L128.293 283.44C128.396 283.132 128.536 282.838 128.713 282.558C128.891 282.269 129.115 282.012 129.385 281.788C129.656 281.564 129.973 281.387 130.337 281.256C130.711 281.125 131.145 281.06 131.639 281.06C132.134 281.06 132.577 281.135 132.969 281.284C133.361 281.424 133.688 281.625 133.949 281.886C134.22 282.138 134.425 282.441 134.565 282.796C134.705 283.151 134.775 283.538 134.775 283.958C134.775 284.35 134.715 284.714 134.593 285.05C134.472 285.386 134.304 285.703 134.089 286.002C133.875 286.301 133.623 286.585 133.333 286.856C133.053 287.127 132.755 287.402 132.437 287.682L130.141 289.656H135.069V291ZM140.31 291.168C139.741 291.168 139.237 291.098 138.798 290.958C138.369 290.809 138.005 290.608 137.706 290.356C137.417 290.104 137.193 289.805 137.034 289.46C136.885 289.115 136.81 288.741 136.81 288.34C136.81 287.687 136.987 287.164 137.342 286.772C137.706 286.371 138.182 286.091 138.77 285.932V285.82C138.266 285.643 137.86 285.363 137.552 284.98C137.253 284.597 137.104 284.126 137.104 283.566C137.104 283.193 137.174 282.852 137.314 282.544C137.463 282.236 137.673 281.975 137.944 281.76C138.215 281.536 138.551 281.363 138.952 281.242C139.353 281.121 139.806 281.06 140.31 281.06C140.814 281.06 141.267 281.121 141.668 281.242C142.069 281.363 142.405 281.536 142.676 281.76C142.947 281.975 143.152 282.236 143.292 282.544C143.441 282.852 143.516 283.193 143.516 283.566C143.516 284.126 143.362 284.597 143.054 284.98C142.755 285.363 142.354 285.643 141.85 285.82V285.932C142.438 286.091 142.909 286.371 143.264 286.772C143.628 287.164 143.81 287.687 143.81 288.34C143.81 288.741 143.731 289.115 143.572 289.46C143.423 289.805 143.199 290.104 142.9 290.356C142.611 290.608 142.247 290.809 141.808 290.958C141.379 291.098 140.879 291.168 140.31 291.168ZM140.31 289.894C140.898 289.894 141.351 289.759 141.668 289.488C141.995 289.217 142.158 288.839 142.158 288.354V288.074C142.158 287.589 141.995 287.211 141.668 286.94C141.351 286.669 140.898 286.534 140.31 286.534C139.722 286.534 139.265 286.669 138.938 286.94C138.621 287.211 138.462 287.589 138.462 288.074V288.354C138.462 288.839 138.621 289.217 138.938 289.488C139.265 289.759 139.722 289.894 140.31 289.894ZM140.31 285.316C140.851 285.316 141.262 285.199 141.542 284.966C141.831 284.733 141.976 284.392 141.976 283.944V283.706C141.976 283.258 141.831 282.917 141.542 282.684C141.262 282.451 140.851 282.334 140.31 282.334C139.769 282.334 139.353 282.451 139.064 282.684C138.784 282.917 138.644 283.258 138.644 283.706V283.944C138.644 284.392 138.784 284.733 139.064 284.966C139.353 285.199 139.769 285.316 140.31 285.316Z" fill="#7A7585"/>
<path d="M95.0695 291H88.4335V289.488L91.5555 286.702C92.0501 286.254 92.4281 285.829 92.6895 285.428C92.9601 285.017 93.0955 284.588 93.0955 284.14V283.958C93.0955 283.482 92.9508 283.109 92.6615 282.838C92.3815 282.567 91.9988 282.432 91.5135 282.432C91.2428 282.432 91.0048 282.474 90.7995 282.558C90.6035 282.633 90.4308 282.74 90.2815 282.88C90.1321 283.02 90.0061 283.183 89.9035 283.37C89.8101 283.557 89.7355 283.757 89.6795 283.972L88.2935 283.44C88.3961 283.132 88.5361 282.838 88.7135 282.558C88.8908 282.269 89.1148 282.012 89.3855 281.788C89.6561 281.564 89.9735 281.387 90.3375 281.256C90.7108 281.125 91.1448 281.06 91.6395 281.06C92.1341 281.06 92.5775 281.135 92.9695 281.284C93.3615 281.424 93.6881 281.625 93.9495 281.886C94.2201 282.138 94.4255 282.441 94.5655 282.796C94.7055 283.151 94.7755 283.538 94.7755 283.958C94.7755 284.35 94.7148 284.714 94.5935 285.05C94.4721 285.386 94.3041 285.703 94.0895 286.002C93.8748 286.301 93.6228 286.585 93.3335 286.856C93.0535 287.127 92.7548 287.402 92.4375 287.682L90.1415 289.656H95.0695V291ZM98.504 291L102.046 282.53H98.35V284.336H96.992V281.228H103.614V282.6L100.17 291H98.504Z" fill="#7A7585"/>
<path d="M55.0695 291H48.4335V289.488L51.5555 286.702C52.0501 286.254 52.4281 285.829 52.6895 285.428C52.9601 285.017 53.0955 284.588 53.0955 284.14V283.958C53.0955 283.482 52.9508 283.109 52.6615 282.838C52.3815 282.567 51.9988 282.432 51.5135 282.432C51.2428 282.432 51.0048 282.474 50.7995 282.558C50.6035 282.633 50.4308 282.74 50.2815 282.88C50.1321 283.02 50.0061 283.183 49.9035 283.37C49.8101 283.557 49.7355 283.757 49.6795 283.972L48.2935 283.44C48.3961 283.132 48.5361 282.838 48.7135 282.558C48.8908 282.269 49.1148 282.012 49.3855 281.788C49.6561 281.564 49.9735 281.387 50.3375 281.256C50.7108 281.125 51.1448 281.06 51.6395 281.06C52.1341 281.06 52.5775 281.135 52.9695 281.284C53.3615 281.424 53.6881 281.625 53.9495 281.886C54.2201 282.138 54.4255 282.441 54.5655 282.796C54.7055 283.151 54.7755 283.538 54.7755 283.958C54.7755 284.35 54.7148 284.714 54.5935 285.05C54.4721 285.386 54.3041 285.703 54.0895 286.002C53.8748 286.301 53.6228 286.585 53.3335 286.856C53.0535 287.127 52.7548 287.402 52.4375 287.682L50.1415 289.656H55.0695V291ZM60.338 291.168C59.7967 291.168 59.3113 291.079 58.882 290.902C58.462 290.725 58.1027 290.473 57.804 290.146C57.5147 289.81 57.2907 289.409 57.132 288.942C56.9733 288.475 56.894 287.948 56.894 287.36C56.894 286.651 57.0013 285.983 57.216 285.358C57.4307 284.733 57.706 284.159 58.042 283.636C58.378 283.113 58.7513 282.651 59.162 282.25C59.582 281.839 59.9927 281.499 60.394 281.228H62.494C61.9433 281.629 61.4487 282.017 61.01 282.39C60.5713 282.763 60.1887 283.146 59.862 283.538C59.5353 283.93 59.26 284.345 59.036 284.784C58.8213 285.223 58.6533 285.703 58.532 286.226L58.63 286.254C58.7327 286.058 58.8493 285.876 58.98 285.708C59.12 285.531 59.2787 285.377 59.456 285.246C59.6427 285.115 59.8527 285.013 60.086 284.938C60.3193 284.863 60.59 284.826 60.898 284.826C61.3087 284.826 61.6867 284.896 62.032 285.036C62.3867 285.176 62.69 285.381 62.942 285.652C63.2033 285.913 63.404 286.231 63.544 286.604C63.6933 286.977 63.768 287.393 63.768 287.85C63.768 288.345 63.684 288.797 63.516 289.208C63.3573 289.609 63.1287 289.955 62.83 290.244C62.5313 290.533 62.1673 290.762 61.738 290.93C61.318 291.089 60.8513 291.168 60.338 291.168ZM60.338 289.88C60.9073 289.88 61.3507 289.731 61.668 289.432C61.9853 289.124 62.144 288.676 62.144 288.088V287.892C62.144 287.304 61.9853 286.861 61.668 286.562C61.3507 286.254 60.9073 286.1 60.338 286.1C59.7687 286.1 59.3253 286.254 59.008 286.562C58.6907 286.861 58.532 287.304 58.532 287.892V288.088C58.532 288.676 58.6907 289.124 59.008 289.432C59.3253 289.731 59.7687 289.88 60.338 289.88Z" fill="#7A7585"/>
<path d="M295.069 249H288.433V247.488L291.555 244.702C292.05 244.254 292.428 243.829 292.689 243.428C292.96 243.017 293.095 242.588 293.095 242.14V241.958C293.095 241.482 292.951 241.109 292.661 240.838C292.381 240.567 291.999 240.432 291.513 240.432C291.243 240.432 291.005 240.474 290.799 240.558C290.603 240.633 290.431 240.74 290.281 240.88C290.132 241.02 290.006 241.183 289.903 241.37C289.81 241.557 289.735 241.757 289.679 241.972L288.293 241.44C288.396 241.132 288.536 240.838 288.713 240.558C288.891 240.269 289.115 240.012 289.385 239.788C289.656 239.564 289.973 239.387 290.337 239.256C290.711 239.125 291.145 239.06 291.639 239.06C292.134 239.06 292.577 239.135 292.969 239.284C293.361 239.424 293.688 239.625 293.949 239.886C294.22 240.138 294.425 240.441 294.565 240.796C294.705 241.151 294.775 241.538 294.775 241.958C294.775 242.35 294.715 242.714 294.593 243.05C294.472 243.386 294.304 243.703 294.089 244.002C293.875 244.301 293.623 244.585 293.333 244.856C293.053 245.127 292.755 245.402 292.437 245.682L290.141 247.656H295.069V249ZM303.222 240.6H298.882L298.63 244.058H298.728C298.84 243.862 298.957 243.689 299.078 243.54C299.199 243.381 299.339 243.246 299.498 243.134C299.657 243.022 299.839 242.938 300.044 242.882C300.249 242.817 300.492 242.784 300.772 242.784C301.192 242.784 301.579 242.854 301.934 242.994C302.298 243.134 302.611 243.335 302.872 243.596C303.143 243.857 303.353 244.179 303.502 244.562C303.651 244.935 303.726 245.36 303.726 245.836C303.726 246.321 303.647 246.769 303.488 247.18C303.339 247.591 303.115 247.945 302.816 248.244C302.517 248.533 302.149 248.762 301.71 248.93C301.281 249.089 300.791 249.168 300.24 249.168C299.801 249.168 299.414 249.117 299.078 249.014C298.742 248.921 298.443 248.795 298.182 248.636C297.93 248.468 297.706 248.281 297.51 248.076C297.323 247.861 297.155 247.642 297.006 247.418L298.154 246.508C298.275 246.704 298.401 246.881 298.532 247.04C298.663 247.199 298.812 247.339 298.98 247.46C299.148 247.581 299.335 247.675 299.54 247.74C299.755 247.805 299.997 247.838 300.268 247.838C300.847 247.838 301.29 247.679 301.598 247.362C301.915 247.045 302.074 246.606 302.074 246.046V245.878C302.074 245.318 301.915 244.879 301.598 244.562C301.29 244.245 300.847 244.086 300.268 244.086C299.848 244.086 299.512 244.165 299.26 244.324C299.008 244.483 298.793 244.66 298.616 244.856L297.314 244.674L297.678 239.228H303.222V240.6Z" fill="#7A7585"/>
<path d="M255.069 249H248.433V247.488L251.555 244.702C252.05 244.254 252.428 243.829 252.689 243.428C252.96 243.017 253.095 242.588 253.095 242.14V241.958C253.095 241.482 252.951 241.109 252.661 240.838C252.381 240.567 251.999 240.432 251.513 240.432C251.243 240.432 251.005 240.474 250.799 240.558C250.603 240.633 250.431 240.74 250.281 240.88C250.132 241.02 250.006 241.183 249.903 241.37C249.81 241.557 249.735 241.757 249.679 241.972L248.293 241.44C248.396 241.132 248.536 240.838 248.713 240.558C248.891 240.269 249.115 240.012 249.385 239.788C249.656 239.564 249.973 239.387 250.337 239.256C250.711 239.125 251.145 239.06 251.639 239.06C252.134 239.06 252.577 239.135 252.969 239.284C253.361 239.424 253.688 239.625 253.949 239.886C254.22 240.138 254.425 240.441 254.565 240.796C254.705 241.151 254.775 241.538 254.775 241.958C254.775 242.35 254.715 242.714 254.593 243.05C254.472 243.386 254.304 243.703 254.089 244.002C253.875 244.301 253.623 244.585 253.333 244.856C253.053 245.127 252.755 245.402 252.437 245.682L250.141 247.656H255.069V249ZM261.136 249V247.096H256.6V245.738L260.562 239.228H262.634V245.85H263.964V247.096H262.634V249H261.136ZM257.944 245.85H261.136V240.67H261.038L257.944 245.85Z" fill="#7A7585"/>
<path d="M215.069 249H208.433V247.488L211.555 244.702C212.05 244.254 212.428 243.829 212.689 243.428C212.96 243.017 213.095 242.588 213.095 242.14V241.958C213.095 241.482 212.951 241.109 212.661 240.838C212.381 240.567 211.999 240.432 211.513 240.432C211.243 240.432 211.005 240.474 210.799 240.558C210.603 240.633 210.431 240.74 210.281 240.88C210.132 241.02 210.006 241.183 209.903 241.37C209.81 241.557 209.735 241.757 209.679 241.972L208.293 241.44C208.396 241.132 208.536 240.838 208.713 240.558C208.891 240.269 209.115 240.012 209.385 239.788C209.656 239.564 209.973 239.387 210.337 239.256C210.711 239.125 211.145 239.06 211.639 239.06C212.134 239.06 212.577 239.135 212.969 239.284C213.361 239.424 213.688 239.625 213.949 239.886C214.22 240.138 214.425 240.441 214.565 240.796C214.705 241.151 214.775 241.538 214.775 241.958C214.775 242.35 214.715 242.714 214.593 243.05C214.472 243.386 214.304 243.703 214.089 244.002C213.875 244.301 213.623 244.585 213.333 244.856C213.053 245.127 212.755 245.402 212.437 245.682L210.141 247.656H215.069V249ZM219.778 243.246C220.385 243.246 220.833 243.12 221.122 242.868C221.411 242.607 221.556 242.275 221.556 241.874V241.776C221.556 241.328 221.416 240.987 221.136 240.754C220.856 240.511 220.478 240.39 220.002 240.39C219.535 240.39 219.139 240.497 218.812 240.712C218.485 240.917 218.21 241.207 217.986 241.58L216.936 240.67C217.085 240.455 217.253 240.25 217.44 240.054C217.627 239.858 217.846 239.69 218.098 239.55C218.35 239.401 218.635 239.284 218.952 239.2C219.269 239.107 219.633 239.06 220.044 239.06C220.501 239.06 220.926 239.116 221.318 239.228C221.71 239.34 222.046 239.508 222.326 239.732C222.606 239.947 222.825 240.213 222.984 240.53C223.143 240.838 223.222 241.188 223.222 241.58C223.222 241.888 223.171 242.168 223.068 242.42C222.975 242.672 222.839 242.896 222.662 243.092C222.494 243.279 222.293 243.433 222.06 243.554C221.836 243.675 221.598 243.764 221.346 243.82V243.89C221.626 243.946 221.887 244.039 222.13 244.17C222.382 244.291 222.601 244.455 222.788 244.66C222.975 244.856 223.119 245.094 223.222 245.374C223.334 245.645 223.39 245.957 223.39 246.312C223.39 246.741 223.306 247.133 223.138 247.488C222.97 247.833 222.732 248.132 222.424 248.384C222.125 248.636 221.761 248.832 221.332 248.972C220.903 249.103 220.427 249.168 219.904 249.168C219.447 249.168 219.045 249.117 218.7 249.014C218.355 248.921 218.047 248.795 217.776 248.636C217.515 248.468 217.281 248.281 217.076 248.076C216.88 247.861 216.707 247.642 216.558 247.418L217.72 246.508C217.841 246.704 217.967 246.886 218.098 247.054C218.238 247.213 218.392 247.353 218.56 247.474C218.737 247.586 218.933 247.675 219.148 247.74C219.372 247.805 219.624 247.838 219.904 247.838C220.501 247.838 220.959 247.698 221.276 247.418C221.593 247.129 221.752 246.732 221.752 246.228V246.13C221.752 245.626 221.584 245.243 221.248 244.982C220.912 244.721 220.436 244.59 219.82 244.59H218.784V243.246H219.778Z" fill="#7A7585"/>
<path d="M175.069 249H168.433V247.488L171.555 244.702C172.05 244.254 172.428 243.829 172.689 243.428C172.96 243.017 173.095 242.588 173.095 242.14V241.958C173.095 241.482 172.951 241.109 172.661 240.838C172.381 240.567 171.999 240.432 171.513 240.432C171.243 240.432 171.005 240.474 170.799 240.558C170.603 240.633 170.431 240.74 170.281 240.88C170.132 241.02 170.006 241.183 169.903 241.37C169.81 241.557 169.735 241.757 169.679 241.972L168.293 241.44C168.396 241.132 168.536 240.838 168.713 240.558C168.891 240.269 169.115 240.012 169.385 239.788C169.656 239.564 169.973 239.387 170.337 239.256C170.711 239.125 171.145 239.06 171.639 239.06C172.134 239.06 172.577 239.135 172.969 239.284C173.361 239.424 173.688 239.625 173.949 239.886C174.22 240.138 174.425 240.441 174.565 240.796C174.705 241.151 174.775 241.538 174.775 241.958C174.775 242.35 174.715 242.714 174.593 243.05C174.472 243.386 174.304 243.703 174.089 244.002C173.875 244.301 173.623 244.585 173.333 244.856C173.053 245.127 172.755 245.402 172.437 245.682L170.141 247.656H175.069V249ZM183.684 249H177.048V247.488L180.17 244.702C180.665 244.254 181.043 243.829 181.304 243.428C181.575 243.017 181.71 242.588 181.71 242.14V241.958C181.71 241.482 181.565 241.109 181.276 240.838C180.996 240.567 180.613 240.432 180.128 240.432C179.857 240.432 179.619 240.474 179.414 240.558C179.218 240.633 179.045 240.74 178.896 240.88C178.747 241.02 178.621 241.183 178.518 241.37C178.425 241.557 178.35 241.757 178.294 241.972L176.908 241.44C177.011 241.132 177.151 240.838 177.328 240.558C177.505 240.269 177.729 240.012 178 239.788C178.271 239.564 178.588 239.387 178.952 239.256C179.325 239.125 179.759 239.06 180.254 239.06C180.749 239.06 181.192 239.135 181.584 239.284C181.976 239.424 182.303 239.625 182.564 239.886C182.835 240.138 183.04 240.441 183.18 240.796C183.32 241.151 183.39 241.538 183.39 241.958C183.39 242.35 183.329 242.714 183.208 243.05C183.087 243.386 182.919 243.703 182.704 244.002C182.489 244.301 182.237 244.585 181.948 244.856C181.668 245.127 181.369 245.402 181.052 245.682L178.756 247.656H183.684V249Z" fill="#7A7585"/>
<path d="M135.069 249H128.433V247.488L131.555 244.702C132.05 244.254 132.428 243.829 132.689 243.428C132.96 243.017 133.095 242.588 133.095 242.14V241.958C133.095 241.482 132.951 241.109 132.661 240.838C132.381 240.567 131.999 240.432 131.513 240.432C131.243 240.432 131.005 240.474 130.799 240.558C130.603 240.633 130.431 240.74 130.281 240.88C130.132 241.02 130.006 241.183 129.903 241.37C129.81 241.557 129.735 241.757 129.679 241.972L128.293 241.44C128.396 241.132 128.536 240.838 128.713 240.558C128.891 240.269 129.115 240.012 129.385 239.788C129.656 239.564 129.973 239.387 130.337 239.256C130.711 239.125 131.145 239.06 131.639 239.06C132.134 239.06 132.577 239.135 132.969 239.284C133.361 239.424 133.688 239.625 133.949 239.886C134.22 240.138 134.425 240.441 134.565 240.796C134.705 241.151 134.775 241.538 134.775 241.958C134.775 242.35 134.715 242.714 134.593 243.05C134.472 243.386 134.304 243.703 134.089 244.002C133.875 244.301 133.623 244.585 133.333 244.856C133.053 245.127 132.755 245.402 132.437 245.682L130.141 247.656H135.069V249ZM137.342 249V247.684H140.086V240.376H139.974L137.706 242.798L136.74 241.93L139.232 239.228H141.64V247.684H144.02V249H137.342Z" fill="#828282"/>
<path d="M95.0695 249H88.4335V247.488L91.5555 244.702C92.0501 244.254 92.4281 243.829 92.6895 243.428C92.9601 243.017 93.0955 242.588 93.0955 242.14V241.958C93.0955 241.482 92.9508 241.109 92.6615 240.838C92.3815 240.567 91.9988 240.432 91.5135 240.432C91.2428 240.432 91.0048 240.474 90.7995 240.558C90.6035 240.633 90.4308 240.74 90.2815 240.88C90.1321 241.02 90.0061 241.183 89.9035 241.37C89.8101 241.557 89.7355 241.757 89.6795 241.972L88.2935 241.44C88.3961 241.132 88.5361 240.838 88.7135 240.558C88.8908 240.269 89.1148 240.012 89.3855 239.788C89.6561 239.564 89.9735 239.387 90.3375 239.256C90.7108 239.125 91.1448 239.06 91.6395 239.06C92.1341 239.06 92.5775 239.135 92.9695 239.284C93.3615 239.424 93.6881 239.625 93.9495 239.886C94.2201 240.138 94.4255 240.441 94.5655 240.796C94.7055 241.151 94.7755 241.538 94.7755 241.958C94.7755 242.35 94.7148 242.714 94.5935 243.05C94.4721 243.386 94.3041 243.703 94.0895 244.002C93.8748 244.301 93.6228 244.585 93.3335 244.856C93.0535 245.127 92.7548 245.402 92.4375 245.682L90.1415 247.656H95.0695V249ZM100.31 249.168C99.7033 249.168 99.176 249.056 98.728 248.832C98.28 248.599 97.9113 248.267 97.622 247.838C97.3327 247.409 97.118 246.881 96.978 246.256C96.838 245.631 96.768 244.917 96.768 244.114C96.768 243.321 96.838 242.611 96.978 241.986C97.118 241.351 97.3327 240.819 97.622 240.39C97.9113 239.961 98.28 239.634 98.728 239.41C99.176 239.177 99.7033 239.06 100.31 239.06C101.523 239.06 102.415 239.503 102.984 240.39C103.563 241.277 103.852 242.518 103.852 244.114C103.852 245.71 103.563 246.951 102.984 247.838C102.415 248.725 101.523 249.168 100.31 249.168ZM100.31 247.824C100.646 247.824 100.931 247.759 101.164 247.628C101.407 247.488 101.603 247.292 101.752 247.04C101.901 246.788 102.009 246.489 102.074 246.144C102.139 245.789 102.172 245.397 102.172 244.968V243.26C102.172 242.831 102.139 242.443 102.074 242.098C102.009 241.743 101.901 241.44 101.752 241.188C101.603 240.936 101.407 240.745 101.164 240.614C100.931 240.474 100.646 240.404 100.31 240.404C99.974 240.404 99.6847 240.474 99.442 240.614C99.2087 240.745 99.0173 240.936 98.868 241.188C98.7187 241.44 98.6113 241.743 98.546 242.098C98.4807 242.443 98.448 242.831 98.448 243.26V244.968C98.448 245.397 98.4807 245.789 98.546 246.144C98.6113 246.489 98.7187 246.788 98.868 247.04C99.0173 247.292 99.2087 247.488 99.442 247.628C99.6847 247.759 99.974 247.824 100.31 247.824Z" fill="#828282"/>
<path d="M48.7275 249V247.684H51.4715V240.376H51.3595L49.0915 242.798L48.1255 241.93L50.6175 239.228H53.0255V247.684H55.4055V249H48.7275ZM63.726 242.868C63.726 243.577 63.6187 244.245 63.404 244.87C63.1893 245.495 62.914 246.069 62.578 246.592C62.242 247.115 61.864 247.581 61.444 247.992C61.0333 248.403 60.6273 248.739 60.226 249H58.126C58.6767 248.599 59.1713 248.211 59.61 247.838C60.0487 247.465 60.4313 247.082 60.758 246.69C61.0847 246.298 61.3553 245.883 61.57 245.444C61.794 245.005 61.9667 244.525 62.088 244.002L61.99 243.974C61.8873 244.17 61.766 244.357 61.626 244.534C61.4953 244.702 61.3367 244.851 61.15 244.982C60.9727 245.113 60.7673 245.215 60.534 245.29C60.3007 245.365 60.03 245.402 59.722 245.402C59.3113 245.402 58.9287 245.332 58.574 245.192C58.2287 245.052 57.9253 244.851 57.664 244.59C57.412 244.319 57.2113 244.002 57.062 243.638C56.922 243.265 56.852 242.845 56.852 242.378C56.852 241.893 56.9313 241.445 57.09 241.034C57.258 240.623 57.4913 240.273 57.79 239.984C58.0887 239.695 58.448 239.471 58.868 239.312C59.288 239.144 59.7593 239.06 60.282 239.06C60.8233 239.06 61.304 239.149 61.724 239.326C62.1533 239.503 62.5127 239.76 62.802 240.096C63.1007 240.423 63.3293 240.819 63.488 241.286C63.6467 241.753 63.726 242.28 63.726 242.868ZM60.282 244.128C60.8513 244.128 61.2947 243.979 61.612 243.68C61.9293 243.372 62.088 242.924 62.088 242.336V242.14C62.088 241.552 61.9293 241.109 61.612 240.81C61.2947 240.502 60.8513 240.348 60.282 240.348C59.7127 240.348 59.2693 240.502 58.952 240.81C58.6347 241.109 58.476 241.552 58.476 242.14V242.336C58.476 242.924 58.6347 243.372 58.952 243.68C59.2693 243.979 59.7127 244.128 60.282 244.128Z" fill="#828282"/>
<path d="M288.727 207V205.684H291.471V198.376H291.359L289.091 200.798L288.125 199.93L290.617 197.228H293.025V205.684H295.405V207H288.727ZM300.31 207.168C299.741 207.168 299.237 207.098 298.798 206.958C298.369 206.809 298.005 206.608 297.706 206.356C297.417 206.104 297.193 205.805 297.034 205.46C296.885 205.115 296.81 204.741 296.81 204.34C296.81 203.687 296.987 203.164 297.342 202.772C297.706 202.371 298.182 202.091 298.77 201.932V201.82C298.266 201.643 297.86 201.363 297.552 200.98C297.253 200.597 297.104 200.126 297.104 199.566C297.104 199.193 297.174 198.852 297.314 198.544C297.463 198.236 297.673 197.975 297.944 197.76C298.215 197.536 298.551 197.363 298.952 197.242C299.353 197.121 299.806 197.06 300.31 197.06C300.814 197.06 301.267 197.121 301.668 197.242C302.069 197.363 302.405 197.536 302.676 197.76C302.947 197.975 303.152 198.236 303.292 198.544C303.441 198.852 303.516 199.193 303.516 199.566C303.516 200.126 303.362 200.597 303.054 200.98C302.755 201.363 302.354 201.643 301.85 201.82V201.932C302.438 202.091 302.909 202.371 303.264 202.772C303.628 203.164 303.81 203.687 303.81 204.34C303.81 204.741 303.731 205.115 303.572 205.46C303.423 205.805 303.199 206.104 302.9 206.356C302.611 206.608 302.247 206.809 301.808 206.958C301.379 207.098 300.879 207.168 300.31 207.168ZM300.31 205.894C300.898 205.894 301.351 205.759 301.668 205.488C301.995 205.217 302.158 204.839 302.158 204.354V204.074C302.158 203.589 301.995 203.211 301.668 202.94C301.351 202.669 300.898 202.534 300.31 202.534C299.722 202.534 299.265 202.669 298.938 202.94C298.621 203.211 298.462 203.589 298.462 204.074V204.354C298.462 204.839 298.621 205.217 298.938 205.488C299.265 205.759 299.722 205.894 300.31 205.894ZM300.31 201.316C300.851 201.316 301.262 201.199 301.542 200.966C301.831 200.733 301.976 200.392 301.976 199.944V199.706C301.976 199.258 301.831 198.917 301.542 198.684C301.262 198.451 300.851 198.334 300.31 198.334C299.769 198.334 299.353 198.451 299.064 198.684C298.784 198.917 298.644 199.258 298.644 199.706V199.944C298.644 200.392 298.784 200.733 299.064 200.966C299.353 201.199 299.769 201.316 300.31 201.316Z" fill="#828282"/>
<path d="M248.727 207V205.684H251.471V198.376H251.359L249.091 200.798L248.125 199.93L250.617 197.228H253.025V205.684H255.405V207H248.727ZM258.504 207L262.046 198.53H258.35V200.336H256.992V197.228H263.614V198.6L260.17 207H258.504Z" fill="#828282"/>
<path d="M208.727 207V205.684H211.471V198.376H211.359L209.091 200.798L208.125 199.93L210.617 197.228H213.025V205.684H215.405V207H208.727ZM220.338 207.168C219.797 207.168 219.311 207.079 218.882 206.902C218.462 206.725 218.103 206.473 217.804 206.146C217.515 205.81 217.291 205.409 217.132 204.942C216.973 204.475 216.894 203.948 216.894 203.36C216.894 202.651 217.001 201.983 217.216 201.358C217.431 200.733 217.706 200.159 218.042 199.636C218.378 199.113 218.751 198.651 219.162 198.25C219.582 197.839 219.993 197.499 220.394 197.228H222.494C221.943 197.629 221.449 198.017 221.01 198.39C220.571 198.763 220.189 199.146 219.862 199.538C219.535 199.93 219.26 200.345 219.036 200.784C218.821 201.223 218.653 201.703 218.532 202.226L218.63 202.254C218.733 202.058 218.849 201.876 218.98 201.708C219.12 201.531 219.279 201.377 219.456 201.246C219.643 201.115 219.853 201.013 220.086 200.938C220.319 200.863 220.59 200.826 220.898 200.826C221.309 200.826 221.687 200.896 222.032 201.036C222.387 201.176 222.69 201.381 222.942 201.652C223.203 201.913 223.404 202.231 223.544 202.604C223.693 202.977 223.768 203.393 223.768 203.85C223.768 204.345 223.684 204.797 223.516 205.208C223.357 205.609 223.129 205.955 222.83 206.244C222.531 206.533 222.167 206.762 221.738 206.93C221.318 207.089 220.851 207.168 220.338 207.168ZM220.338 205.88C220.907 205.88 221.351 205.731 221.668 205.432C221.985 205.124 222.144 204.676 222.144 204.088V203.892C222.144 203.304 221.985 202.861 221.668 202.562C221.351 202.254 220.907 202.1 220.338 202.1C219.769 202.1 219.325 202.254 219.008 202.562C218.691 202.861 218.532 203.304 218.532 203.892V204.088C218.532 204.676 218.691 205.124 219.008 205.432C219.325 205.731 219.769 205.88 220.338 205.88Z" fill="#828282"/>
<path d="M168.727 207V205.684H171.471V198.376H171.359L169.091 200.798L168.125 199.93L170.617 197.228H173.025V205.684H175.405V207H168.727ZM183.222 198.6H178.882L178.63 202.058H178.728C178.84 201.862 178.957 201.689 179.078 201.54C179.199 201.381 179.339 201.246 179.498 201.134C179.657 201.022 179.839 200.938 180.044 200.882C180.249 200.817 180.492 200.784 180.772 200.784C181.192 200.784 181.579 200.854 181.934 200.994C182.298 201.134 182.611 201.335 182.872 201.596C183.143 201.857 183.353 202.179 183.502 202.562C183.651 202.935 183.726 203.36 183.726 203.836C183.726 204.321 183.647 204.769 183.488 205.18C183.339 205.591 183.115 205.945 182.816 206.244C182.517 206.533 182.149 206.762 181.71 206.93C181.281 207.089 180.791 207.168 180.24 207.168C179.801 207.168 179.414 207.117 179.078 207.014C178.742 206.921 178.443 206.795 178.182 206.636C177.93 206.468 177.706 206.281 177.51 206.076C177.323 205.861 177.155 205.642 177.006 205.418L178.154 204.508C178.275 204.704 178.401 204.881 178.532 205.04C178.663 205.199 178.812 205.339 178.98 205.46C179.148 205.581 179.335 205.675 179.54 205.74C179.755 205.805 179.997 205.838 180.268 205.838C180.847 205.838 181.29 205.679 181.598 205.362C181.915 205.045 182.074 204.606 182.074 204.046V203.878C182.074 203.318 181.915 202.879 181.598 202.562C181.29 202.245 180.847 202.086 180.268 202.086C179.848 202.086 179.512 202.165 179.26 202.324C179.008 202.483 178.793 202.66 178.616 202.856L177.314 202.674L177.678 197.228H183.222V198.6Z" fill="#828282"/>
<path d="M128.727 207V205.684H131.471V198.376H131.359L129.091 200.798L128.125 199.93L130.617 197.228H133.025V205.684H135.405V207H128.727ZM141.136 207V205.096H136.6V203.738L140.562 197.228H142.634V203.85H143.964V205.096H142.634V207H141.136ZM137.944 203.85H141.136V198.67H141.038L137.944 203.85Z" fill="#828282"/>
<path d="M88.7275 207V205.684H91.4715V198.376H91.3595L89.0915 200.798L88.1255 199.93L90.6175 197.228H93.0255V205.684H95.4055V207H88.7275ZM99.778 201.246C100.385 201.246 100.833 201.12 101.122 200.868C101.411 200.607 101.556 200.275 101.556 199.874V199.776C101.556 199.328 101.416 198.987 101.136 198.754C100.856 198.511 100.478 198.39 100.002 198.39C99.5353 198.39 99.1387 198.497 98.812 198.712C98.4853 198.917 98.21 199.207 97.986 199.58L96.936 198.67C97.0853 198.455 97.2533 198.25 97.44 198.054C97.6267 197.858 97.846 197.69 98.098 197.55C98.35 197.401 98.6347 197.284 98.952 197.2C99.2693 197.107 99.6333 197.06 100.044 197.06C100.501 197.06 100.926 197.116 101.318 197.228C101.71 197.34 102.046 197.508 102.326 197.732C102.606 197.947 102.825 198.213 102.984 198.53C103.143 198.838 103.222 199.188 103.222 199.58C103.222 199.888 103.171 200.168 103.068 200.42C102.975 200.672 102.839 200.896 102.662 201.092C102.494 201.279 102.293 201.433 102.06 201.554C101.836 201.675 101.598 201.764 101.346 201.82V201.89C101.626 201.946 101.887 202.039 102.13 202.17C102.382 202.291 102.601 202.455 102.788 202.66C102.975 202.856 103.119 203.094 103.222 203.374C103.334 203.645 103.39 203.957 103.39 204.312C103.39 204.741 103.306 205.133 103.138 205.488C102.97 205.833 102.732 206.132 102.424 206.384C102.125 206.636 101.761 206.832 101.332 206.972C100.903 207.103 100.427 207.168 99.904 207.168C99.4467 207.168 99.0453 207.117 98.7 207.014C98.3547 206.921 98.0467 206.795 97.776 206.636C97.5147 206.468 97.2813 206.281 97.076 206.076C96.88 205.861 96.7073 205.642 96.558 205.418L97.72 204.508C97.8413 204.704 97.9673 204.886 98.098 205.054C98.238 205.213 98.392 205.353 98.56 205.474C98.7373 205.586 98.9333 205.675 99.148 205.74C99.372 205.805 99.624 205.838 99.904 205.838C100.501 205.838 100.959 205.698 101.276 205.418C101.593 205.129 101.752 204.732 101.752 204.228V204.13C101.752 203.626 101.584 203.243 101.248 202.982C100.912 202.721 100.436 202.59 99.82 202.59H98.784V201.246H99.778Z" fill="#828282"/>
<path d="M48.7275 207V205.684H51.4715V198.376H51.3595L49.0915 200.798L48.1255 199.93L50.6175 197.228H53.0255V205.684H55.4055V207H48.7275ZM63.684 207H57.048V205.488L60.17 202.702C60.6647 202.254 61.0427 201.829 61.304 201.428C61.5747 201.017 61.71 200.588 61.71 200.14V199.958C61.71 199.482 61.5653 199.109 61.276 198.838C60.996 198.567 60.6133 198.432 60.128 198.432C59.8573 198.432 59.6193 198.474 59.414 198.558C59.218 198.633 59.0453 198.74 58.896 198.88C58.7467 199.02 58.6207 199.183 58.518 199.37C58.4247 199.557 58.35 199.757 58.294 199.972L56.908 199.44C57.0107 199.132 57.1507 198.838 57.328 198.558C57.5053 198.269 57.7293 198.012 58 197.788C58.2707 197.564 58.588 197.387 58.952 197.256C59.3253 197.125 59.7593 197.06 60.254 197.06C60.7487 197.06 61.192 197.135 61.584 197.284C61.976 197.424 62.3027 197.625 62.564 197.886C62.8347 198.138 63.04 198.441 63.18 198.796C63.32 199.151 63.39 199.538 63.39 199.958C63.39 200.35 63.3293 200.714 63.208 201.05C63.0867 201.386 62.9187 201.703 62.704 202.002C62.4893 202.301 62.2373 202.585 61.948 202.856C61.668 203.127 61.3693 203.402 61.052 203.682L58.756 205.656H63.684V207Z" fill="#828282"/>
<path d="M288.727 165V163.684H291.471V156.376H291.359L289.091 158.798L288.125 157.93L290.617 155.228H293.025V163.684H295.405V165H288.727ZM297.342 165V163.684H300.086V156.376H299.974L297.706 158.798L296.74 157.93L299.232 155.228H301.64V163.684H304.02V165H297.342Z" fill="#828282"/>
<path d="M248.727 165V163.684H251.471V156.376H251.359L249.091 158.798L248.125 157.93L250.617 155.228H253.025V163.684H255.405V165H248.727ZM260.31 165.168C259.703 165.168 259.176 165.056 258.728 164.832C258.28 164.599 257.911 164.267 257.622 163.838C257.333 163.409 257.118 162.881 256.978 162.256C256.838 161.631 256.768 160.917 256.768 160.114C256.768 159.321 256.838 158.611 256.978 157.986C257.118 157.351 257.333 156.819 257.622 156.39C257.911 155.961 258.28 155.634 258.728 155.41C259.176 155.177 259.703 155.06 260.31 155.06C261.523 155.06 262.415 155.503 262.984 156.39C263.563 157.277 263.852 158.518 263.852 160.114C263.852 161.71 263.563 162.951 262.984 163.838C262.415 164.725 261.523 165.168 260.31 165.168ZM260.31 163.824C260.646 163.824 260.931 163.759 261.164 163.628C261.407 163.488 261.603 163.292 261.752 163.04C261.901 162.788 262.009 162.489 262.074 162.144C262.139 161.789 262.172 161.397 262.172 160.968V159.26C262.172 158.831 262.139 158.443 262.074 158.098C262.009 157.743 261.901 157.44 261.752 157.188C261.603 156.936 261.407 156.745 261.164 156.614C260.931 156.474 260.646 156.404 260.31 156.404C259.974 156.404 259.685 156.474 259.442 156.614C259.209 156.745 259.017 156.936 258.868 157.188C258.719 157.44 258.611 157.743 258.546 158.098C258.481 158.443 258.448 158.831 258.448 159.26V160.968C258.448 161.397 258.481 161.789 258.546 162.144C258.611 162.489 258.719 162.788 258.868 163.04C259.017 163.292 259.209 163.488 259.442 163.628C259.685 163.759 259.974 163.824 260.31 163.824Z" fill="#828282"/>
<path d="M219.419 158.868C219.419 159.577 219.311 160.245 219.097 160.87C218.882 161.495 218.607 162.069 218.271 162.592C217.935 163.115 217.557 163.581 217.137 163.992C216.726 164.403 216.32 164.739 215.919 165H213.819C214.369 164.599 214.864 164.211 215.303 163.838C215.741 163.465 216.124 163.082 216.451 162.69C216.777 162.298 217.048 161.883 217.263 161.444C217.487 161.005 217.659 160.525 217.781 160.002L217.683 159.974C217.58 160.17 217.459 160.357 217.319 160.534C217.188 160.702 217.029 160.851 216.843 160.982C216.665 161.113 216.46 161.215 216.227 161.29C215.993 161.365 215.723 161.402 215.415 161.402C215.004 161.402 214.621 161.332 214.267 161.192C213.921 161.052 213.618 160.851 213.357 160.59C213.105 160.319 212.904 160.002 212.755 159.638C212.615 159.265 212.545 158.845 212.545 158.378C212.545 157.893 212.624 157.445 212.783 157.034C212.951 156.623 213.184 156.273 213.483 155.984C213.781 155.695 214.141 155.471 214.561 155.312C214.981 155.144 215.452 155.06 215.975 155.06C216.516 155.06 216.997 155.149 217.417 155.326C217.846 155.503 218.205 155.76 218.495 156.096C218.793 156.423 219.022 156.819 219.181 157.286C219.339 157.753 219.419 158.28 219.419 158.868ZM215.975 160.128C216.544 160.128 216.987 159.979 217.305 159.68C217.622 159.372 217.781 158.924 217.781 158.336V158.14C217.781 157.552 217.622 157.109 217.305 156.81C216.987 156.502 216.544 156.348 215.975 156.348C215.405 156.348 214.962 156.502 214.645 156.81C214.327 157.109 214.169 157.552 214.169 158.14V158.336C214.169 158.924 214.327 159.372 214.645 159.68C214.962 159.979 215.405 160.128 215.975 160.128Z" fill="#828282"/>
<path d="M176.003 165.168C175.433 165.168 174.929 165.098 174.491 164.958C174.061 164.809 173.697 164.608 173.399 164.356C173.109 164.104 172.885 163.805 172.727 163.46C172.577 163.115 172.503 162.741 172.503 162.34C172.503 161.687 172.68 161.164 173.035 160.772C173.399 160.371 173.875 160.091 174.463 159.932V159.82C173.959 159.643 173.553 159.363 173.245 158.98C172.946 158.597 172.797 158.126 172.797 157.566C172.797 157.193 172.867 156.852 173.007 156.544C173.156 156.236 173.366 155.975 173.637 155.76C173.907 155.536 174.243 155.363 174.645 155.242C175.046 155.121 175.499 155.06 176.003 155.06C176.507 155.06 176.959 155.121 177.361 155.242C177.762 155.363 178.098 155.536 178.369 155.76C178.639 155.975 178.845 156.236 178.985 156.544C179.134 156.852 179.209 157.193 179.209 157.566C179.209 158.126 179.055 158.597 178.747 158.98C178.448 159.363 178.047 159.643 177.543 159.82V159.932C178.131 160.091 178.602 160.371 178.957 160.772C179.321 161.164 179.503 161.687 179.503 162.34C179.503 162.741 179.423 163.115 179.265 163.46C179.115 163.805 178.891 164.104 178.593 164.356C178.303 164.608 177.939 164.809 177.501 164.958C177.071 165.098 176.572 165.168 176.003 165.168ZM176.003 163.894C176.591 163.894 177.043 163.759 177.361 163.488C177.687 163.217 177.851 162.839 177.851 162.354V162.074C177.851 161.589 177.687 161.211 177.361 160.94C177.043 160.669 176.591 160.534 176.003 160.534C175.415 160.534 174.957 160.669 174.631 160.94C174.313 161.211 174.155 161.589 174.155 162.074V162.354C174.155 162.839 174.313 163.217 174.631 163.488C174.957 163.759 175.415 163.894 176.003 163.894ZM176.003 159.316C176.544 159.316 176.955 159.199 177.235 158.966C177.524 158.733 177.669 158.392 177.669 157.944V157.706C177.669 157.258 177.524 156.917 177.235 156.684C176.955 156.451 176.544 156.334 176.003 156.334C175.461 156.334 175.046 156.451 174.757 156.684C174.477 156.917 174.337 157.258 174.337 157.706V157.944C174.337 158.392 174.477 158.733 174.757 158.966C175.046 159.199 175.461 159.316 176.003 159.316Z" fill="#828282"/>
<path d="M134.197 165L137.739 156.53H134.043V158.336H132.685V155.228H139.307V156.6L135.863 165H134.197Z" fill="#828282"/>
<path d="M96.0307 165.168C95.4894 165.168 95.0041 165.079 94.5747 164.902C94.1547 164.725 93.7954 164.473 93.4967 164.146C93.2074 163.81 92.9834 163.409 92.8247 162.942C92.6661 162.475 92.5867 161.948 92.5867 161.36C92.5867 160.651 92.6941 159.983 92.9087 159.358C93.1234 158.733 93.3987 158.159 93.7347 157.636C94.0707 157.113 94.4441 156.651 94.8547 156.25C95.2747 155.839 95.6854 155.499 96.0867 155.228H98.1867C97.6361 155.629 97.1414 156.017 96.7027 156.39C96.2641 156.763 95.8814 157.146 95.5547 157.538C95.2281 157.93 94.9527 158.345 94.7287 158.784C94.5141 159.223 94.3461 159.703 94.2247 160.226L94.3227 160.254C94.4254 160.058 94.5421 159.876 94.6727 159.708C94.8127 159.531 94.9714 159.377 95.1487 159.246C95.3354 159.115 95.5454 159.013 95.7787 158.938C96.0121 158.863 96.2827 158.826 96.5907 158.826C97.0014 158.826 97.3794 158.896 97.7247 159.036C98.0794 159.176 98.3827 159.381 98.6347 159.652C98.8961 159.913 99.0967 160.231 99.2367 160.604C99.3861 160.977 99.4607 161.393 99.4607 161.85C99.4607 162.345 99.3767 162.797 99.2087 163.208C99.0501 163.609 98.8214 163.955 98.5227 164.244C98.2241 164.533 97.8601 164.762 97.4307 164.93C97.0107 165.089 96.5441 165.168 96.0307 165.168ZM96.0307 163.88C96.6001 163.88 97.0434 163.731 97.3607 163.432C97.6781 163.124 97.8367 162.676 97.8367 162.088V161.892C97.8367 161.304 97.6781 160.861 97.3607 160.562C97.0434 160.254 96.6001 160.1 96.0307 160.1C95.4614 160.1 95.0181 160.254 94.7007 160.562C94.3834 160.861 94.2247 161.304 94.2247 161.892V162.088C94.2247 162.676 94.3834 163.124 94.7007 163.432C95.0181 163.731 95.4614 163.88 96.0307 163.88Z" fill="#828282"/>
<path d="M58.9147 156.6H54.5747L54.3227 160.058H54.4207C54.5327 159.862 54.6494 159.689 54.7707 159.54C54.8921 159.381 55.0321 159.246 55.1907 159.134C55.3494 159.022 55.5314 158.938 55.7367 158.882C55.9421 158.817 56.1847 158.784 56.4647 158.784C56.8847 158.784 57.2721 158.854 57.6267 158.994C57.9907 159.134 58.3034 159.335 58.5647 159.596C58.8354 159.857 59.0454 160.179 59.1947 160.562C59.3441 160.935 59.4187 161.36 59.4187 161.836C59.4187 162.321 59.3394 162.769 59.1807 163.18C59.0314 163.591 58.8074 163.945 58.5087 164.244C58.2101 164.533 57.8414 164.762 57.4027 164.93C56.9734 165.089 56.4834 165.168 55.9327 165.168C55.4941 165.168 55.1067 165.117 54.7707 165.014C54.4347 164.921 54.1361 164.795 53.8747 164.636C53.6227 164.468 53.3987 164.281 53.2027 164.076C53.0161 163.861 52.8481 163.642 52.6987 163.418L53.8467 162.508C53.9681 162.704 54.0941 162.881 54.2247 163.04C54.3554 163.199 54.5047 163.339 54.6727 163.46C54.8407 163.581 55.0274 163.675 55.2327 163.74C55.4474 163.805 55.6901 163.838 55.9607 163.838C56.5394 163.838 56.9827 163.679 57.2907 163.362C57.6081 163.045 57.7667 162.606 57.7667 162.046V161.878C57.7667 161.318 57.6081 160.879 57.2907 160.562C56.9827 160.245 56.5394 160.086 55.9607 160.086C55.5407 160.086 55.2047 160.165 54.9527 160.324C54.7007 160.483 54.4861 160.66 54.3087 160.856L53.0067 160.674L53.3707 155.228H58.9147V156.6Z" fill="#828282"/>
<path d="M296.829 123V121.096H292.293V119.738L296.255 113.228H298.327V119.85H299.657V121.096H298.327V123H296.829ZM293.637 119.85H296.829V114.67H296.731L293.637 119.85Z" fill="#828282"/>
<path d="M255.471 117.246C256.077 117.246 256.525 117.12 256.815 116.868C257.104 116.607 257.249 116.275 257.249 115.874V115.776C257.249 115.328 257.109 114.987 256.829 114.754C256.549 114.511 256.171 114.39 255.695 114.39C255.228 114.39 254.831 114.497 254.505 114.712C254.178 114.917 253.903 115.207 253.679 115.58L252.629 114.67C252.778 114.455 252.946 114.25 253.133 114.054C253.319 113.858 253.539 113.69 253.791 113.55C254.043 113.401 254.327 113.284 254.645 113.2C254.962 113.107 255.326 113.06 255.737 113.06C256.194 113.06 256.619 113.116 257.011 113.228C257.403 113.34 257.739 113.508 258.019 113.732C258.299 113.947 258.518 114.213 258.677 114.53C258.835 114.838 258.915 115.188 258.915 115.58C258.915 115.888 258.863 116.168 258.761 116.42C258.667 116.672 258.532 116.896 258.355 117.092C258.187 117.279 257.986 117.433 257.753 117.554C257.529 117.675 257.291 117.764 257.039 117.82V117.89C257.319 117.946 257.58 118.039 257.823 118.17C258.075 118.291 258.294 118.455 258.481 118.66C258.667 118.856 258.812 119.094 258.915 119.374C259.027 119.645 259.083 119.957 259.083 120.312C259.083 120.741 258.999 121.133 258.831 121.488C258.663 121.833 258.425 122.132 258.117 122.384C257.818 122.636 257.454 122.832 257.025 122.972C256.595 123.103 256.119 123.168 255.597 123.168C255.139 123.168 254.738 123.117 254.393 123.014C254.047 122.921 253.739 122.795 253.469 122.636C253.207 122.468 252.974 122.281 252.769 122.076C252.573 121.861 252.4 121.642 252.251 121.418L253.413 120.508C253.534 120.704 253.66 120.886 253.791 121.054C253.931 121.213 254.085 121.353 254.253 121.474C254.43 121.586 254.626 121.675 254.841 121.74C255.065 121.805 255.317 121.838 255.597 121.838C256.194 121.838 256.651 121.698 256.969 121.418C257.286 121.129 257.445 120.732 257.445 120.228V120.13C257.445 119.626 257.277 119.243 256.941 118.982C256.605 118.721 256.129 118.59 255.513 118.59H254.477V117.246H255.471Z" fill="#828282"/>
<path d="M219.377 123H212.741V121.488L215.863 118.702C216.357 118.254 216.735 117.829 216.997 117.428C217.267 117.017 217.403 116.588 217.403 116.14V115.958C217.403 115.482 217.258 115.109 216.969 114.838C216.689 114.567 216.306 114.432 215.821 114.432C215.55 114.432 215.312 114.474 215.107 114.558C214.911 114.633 214.738 114.74 214.589 114.88C214.439 115.02 214.313 115.183 214.211 115.37C214.117 115.557 214.043 115.757 213.987 115.972L212.601 115.44C212.703 115.132 212.843 114.838 213.021 114.558C213.198 114.269 213.422 114.012 213.693 113.788C213.963 113.564 214.281 113.387 214.645 113.256C215.018 113.125 215.452 113.06 215.947 113.06C216.441 113.06 216.885 113.135 217.277 113.284C217.669 113.424 217.995 113.625 218.257 113.886C218.527 114.138 218.733 114.441 218.873 114.796C219.013 115.151 219.083 115.538 219.083 115.958C219.083 116.35 219.022 116.714 218.901 117.05C218.779 117.386 218.611 117.703 218.397 118.002C218.182 118.301 217.93 118.585 217.641 118.856C217.361 119.127 217.062 119.402 216.745 119.682L214.449 121.656H219.377V123Z" fill="#828282"/>
<path d="M173.035 123V121.684H175.779V114.376H175.667L173.399 116.798L172.433 115.93L174.925 113.228H177.333V121.684H179.713V123H173.035Z" fill="#828282"/>
<path d="M131.163 117.246C131.77 117.246 132.218 117.12 132.507 116.868C132.797 116.607 132.941 116.275 132.941 115.874V115.776C132.941 115.328 132.801 114.987 132.521 114.754C132.241 114.511 131.863 114.39 131.387 114.39C130.921 114.39 130.524 114.497 130.197 114.712C129.871 114.917 129.595 115.207 129.371 115.58L128.321 114.67C128.471 114.455 128.639 114.25 128.825 114.054C129.012 113.858 129.231 113.69 129.483 113.55C129.735 113.401 130.02 113.284 130.337 113.2C130.655 113.107 131.019 113.06 131.429 113.06C131.887 113.06 132.311 113.116 132.703 113.228C133.095 113.34 133.431 113.508 133.711 113.732C133.991 113.947 134.211 114.213 134.369 114.53C134.528 114.838 134.607 115.188 134.607 115.58C134.607 115.888 134.556 116.168 134.453 116.42C134.36 116.672 134.225 116.896 134.047 117.092C133.879 117.279 133.679 117.433 133.445 117.554C133.221 117.675 132.983 117.764 132.731 117.82V117.89C133.011 117.946 133.273 118.039 133.515 118.17C133.767 118.291 133.987 118.455 134.173 118.66C134.36 118.856 134.505 119.094 134.607 119.374C134.719 119.645 134.775 119.957 134.775 120.312C134.775 120.741 134.691 121.133 134.523 121.488C134.355 121.833 134.117 122.132 133.809 122.384C133.511 122.636 133.147 122.832 132.717 122.972C132.288 123.103 131.812 123.168 131.289 123.168C130.832 123.168 130.431 123.117 130.085 123.014C129.74 122.921 129.432 122.795 129.161 122.636C128.9 122.468 128.667 122.281 128.461 122.076C128.265 121.861 128.093 121.642 127.943 121.418L129.105 120.508C129.227 120.704 129.353 120.886 129.483 121.054C129.623 121.213 129.777 121.353 129.945 121.474C130.123 121.586 130.319 121.675 130.533 121.74C130.757 121.805 131.009 121.838 131.289 121.838C131.887 121.838 132.344 121.698 132.661 121.418C132.979 121.129 133.137 120.732 133.137 120.228V120.13C133.137 119.626 132.969 119.243 132.633 118.982C132.297 118.721 131.821 118.59 131.205 118.59H130.169V117.246H131.163ZM140.31 123.168C139.703 123.168 139.176 123.056 138.728 122.832C138.28 122.599 137.911 122.267 137.622 121.838C137.333 121.409 137.118 120.881 136.978 120.256C136.838 119.631 136.768 118.917 136.768 118.114C136.768 117.321 136.838 116.611 136.978 115.986C137.118 115.351 137.333 114.819 137.622 114.39C137.911 113.961 138.28 113.634 138.728 113.41C139.176 113.177 139.703 113.06 140.31 113.06C141.523 113.06 142.415 113.503 142.984 114.39C143.563 115.277 143.852 116.518 143.852 118.114C143.852 119.71 143.563 120.951 142.984 121.838C142.415 122.725 141.523 123.168 140.31 123.168ZM140.31 121.824C140.646 121.824 140.931 121.759 141.164 121.628C141.407 121.488 141.603 121.292 141.752 121.04C141.901 120.788 142.009 120.489 142.074 120.144C142.139 119.789 142.172 119.397 142.172 118.968V117.26C142.172 116.831 142.139 116.443 142.074 116.098C142.009 115.743 141.901 115.44 141.752 115.188C141.603 114.936 141.407 114.745 141.164 114.614C140.931 114.474 140.646 114.404 140.31 114.404C139.974 114.404 139.685 114.474 139.442 114.614C139.209 114.745 139.017 114.936 138.868 115.188C138.719 115.44 138.611 115.743 138.546 116.098C138.481 116.443 138.448 116.831 138.448 117.26V118.968C138.448 119.397 138.481 119.789 138.546 120.144C138.611 120.489 138.719 120.788 138.868 121.04C139.017 121.292 139.209 121.488 139.442 121.628C139.685 121.759 139.974 121.824 140.31 121.824Z" fill="#3C3844"/>
<path d="M95.0695 123H88.4335V121.488L91.5555 118.702C92.0501 118.254 92.4281 117.829 92.6895 117.428C92.9601 117.017 93.0955 116.588 93.0955 116.14V115.958C93.0955 115.482 92.9508 115.109 92.6615 114.838C92.3815 114.567 91.9988 114.432 91.5135 114.432C91.2428 114.432 91.0048 114.474 90.7995 114.558C90.6035 114.633 90.4308 114.74 90.2815 114.88C90.1321 115.02 90.0061 115.183 89.9035 115.37C89.8101 115.557 89.7355 115.757 89.6795 115.972L88.2935 115.44C88.3961 115.132 88.5361 114.838 88.7135 114.558C88.8908 114.269 89.1148 114.012 89.3855 113.788C89.6561 113.564 89.9735 113.387 90.3375 113.256C90.7108 113.125 91.1448 113.06 91.6395 113.06C92.1341 113.06 92.5775 113.135 92.9695 113.284C93.3615 113.424 93.6881 113.625 93.9495 113.886C94.2201 114.138 94.4255 114.441 94.5655 114.796C94.7055 115.151 94.7755 115.538 94.7755 115.958C94.7755 116.35 94.7148 116.714 94.5935 117.05C94.4721 117.386 94.3041 117.703 94.0895 118.002C93.8748 118.301 93.6228 118.585 93.3335 118.856C93.0535 119.127 92.7548 119.402 92.4375 119.682L90.1415 121.656H95.0695V123ZM103.726 116.868C103.726 117.577 103.619 118.245 103.404 118.87C103.189 119.495 102.914 120.069 102.578 120.592C102.242 121.115 101.864 121.581 101.444 121.992C101.033 122.403 100.627 122.739 100.226 123H98.126C98.6767 122.599 99.1713 122.211 99.61 121.838C100.049 121.465 100.431 121.082 100.758 120.69C101.085 120.298 101.355 119.883 101.57 119.444C101.794 119.005 101.967 118.525 102.088 118.002L101.99 117.974C101.887 118.17 101.766 118.357 101.626 118.534C101.495 118.702 101.337 118.851 101.15 118.982C100.973 119.113 100.767 119.215 100.534 119.29C100.301 119.365 100.03 119.402 99.722 119.402C99.3113 119.402 98.9287 119.332 98.574 119.192C98.2287 119.052 97.9253 118.851 97.664 118.59C97.412 118.319 97.2113 118.002 97.062 117.638C96.922 117.265 96.852 116.845 96.852 116.378C96.852 115.893 96.9313 115.445 97.09 115.034C97.258 114.623 97.4913 114.273 97.79 113.984C98.0887 113.695 98.448 113.471 98.868 113.312C99.288 113.144 99.7593 113.06 100.282 113.06C100.823 113.06 101.304 113.149 101.724 113.326C102.153 113.503 102.513 113.76 102.802 114.096C103.101 114.423 103.329 114.819 103.488 115.286C103.647 115.753 103.726 116.28 103.726 116.868ZM100.282 118.128C100.851 118.128 101.295 117.979 101.612 117.68C101.929 117.372 102.088 116.924 102.088 116.336V116.14C102.088 115.552 101.929 115.109 101.612 114.81C101.295 114.502 100.851 114.348 100.282 114.348C99.7127 114.348 99.2693 114.502 98.952 114.81C98.6347 115.109 98.476 115.552 98.476 116.14V116.336C98.476 116.924 98.6347 117.372 98.952 117.68C99.2693 117.979 99.7127 118.128 100.282 118.128Z" fill="#3C3844"/>
<path d="M55.0695 123H48.4335V121.488L51.5555 118.702C52.0501 118.254 52.4281 117.829 52.6895 117.428C52.9601 117.017 53.0955 116.588 53.0955 116.14V115.958C53.0955 115.482 52.9508 115.109 52.6615 114.838C52.3815 114.567 51.9988 114.432 51.5135 114.432C51.2428 114.432 51.0048 114.474 50.7995 114.558C50.6035 114.633 50.4308 114.74 50.2815 114.88C50.1321 115.02 50.0061 115.183 49.9035 115.37C49.8101 115.557 49.7355 115.757 49.6795 115.972L48.2935 115.44C48.3961 115.132 48.5361 114.838 48.7135 114.558C48.8908 114.269 49.1148 114.012 49.3855 113.788C49.6561 113.564 49.9735 113.387 50.3375 113.256C50.7108 113.125 51.1448 113.06 51.6395 113.06C52.1341 113.06 52.5775 113.135 52.9695 113.284C53.3615 113.424 53.6881 113.625 53.9495 113.886C54.2201 114.138 54.4255 114.441 54.5655 114.796C54.7055 115.151 54.7755 115.538 54.7755 115.958C54.7755 116.35 54.7148 116.714 54.5935 117.05C54.4721 117.386 54.3041 117.703 54.0895 118.002C53.8748 118.301 53.6228 118.585 53.3335 118.856C53.0535 119.127 52.7548 119.402 52.4375 119.682L50.1415 121.656H55.0695V123ZM60.31 123.168C59.7407 123.168 59.2367 123.098 58.798 122.958C58.3687 122.809 58.0047 122.608 57.706 122.356C57.4167 122.104 57.1927 121.805 57.034 121.46C56.8847 121.115 56.81 120.741 56.81 120.34C56.81 119.687 56.9873 119.164 57.342 118.772C57.706 118.371 58.182 118.091 58.77 117.932V117.82C58.266 117.643 57.86 117.363 57.552 116.98C57.2533 116.597 57.104 116.126 57.104 115.566C57.104 115.193 57.174 114.852 57.314 114.544C57.4633 114.236 57.6733 113.975 57.944 113.76C58.2147 113.536 58.5507 113.363 58.952 113.242C59.3533 113.121 59.806 113.06 60.31 113.06C60.814 113.06 61.2667 113.121 61.668 113.242C62.0693 113.363 62.4053 113.536 62.676 113.76C62.9467 113.975 63.152 114.236 63.292 114.544C63.4413 114.852 63.516 115.193 63.516 115.566C63.516 116.126 63.362 116.597 63.054 116.98C62.7553 117.363 62.354 117.643 61.85 117.82V117.932C62.438 118.091 62.9093 118.371 63.264 118.772C63.628 119.164 63.81 119.687 63.81 120.34C63.81 120.741 63.7307 121.115 63.572 121.46C63.4227 121.805 63.1987 122.104 62.9 122.356C62.6107 122.608 62.2467 122.809 61.808 122.958C61.3787 123.098 60.8793 123.168 60.31 123.168ZM60.31 121.894C60.898 121.894 61.3507 121.759 61.668 121.488C61.9947 121.217 62.158 120.839 62.158 120.354V120.074C62.158 119.589 61.9947 119.211 61.668 118.94C61.3507 118.669 60.898 118.534 60.31 118.534C59.722 118.534 59.2647 118.669 58.938 118.94C58.6207 119.211 58.462 119.589 58.462 120.074V120.354C58.462 120.839 58.6207 121.217 58.938 121.488C59.2647 121.759 59.722 121.894 60.31 121.894ZM60.31 117.316C60.8513 117.316 61.262 117.199 61.542 116.966C61.8313 116.733 61.976 116.392 61.976 115.944V115.706C61.976 115.258 61.8313 114.917 61.542 114.684C61.262 114.451 60.8513 114.334 60.31 114.334C59.7687 114.334 59.3533 114.451 59.064 114.684C58.784 114.917 58.644 115.258 58.644 115.706V115.944C58.644 116.392 58.784 116.733 59.064 116.966C59.3533 117.199 59.7687 117.316 60.31 117.316Z" fill="#3C3844"/>
<path d="M288.394 82.12C287.781 82.12 287.261 82.0167 286.834 81.81C286.408 81.5967 286.044 81.3233 285.744 80.99L286.744 79.98C287.218 80.5133 287.801 80.78 288.494 80.78C288.868 80.78 289.144 80.7033 289.324 80.55C289.504 80.3967 289.594 80.1933 289.594 79.94C289.594 79.7467 289.541 79.5867 289.434 79.46C289.328 79.3267 289.111 79.2367 288.784 79.19L288.094 79.1C287.354 79.0067 286.811 78.7833 286.464 78.43C286.124 78.0767 285.954 77.6067 285.954 77.02C285.954 76.7067 286.014 76.42 286.134 76.16C286.254 75.9 286.424 75.6767 286.644 75.49C286.871 75.3033 287.144 75.16 287.464 75.06C287.791 74.9533 288.161 74.9 288.574 74.9C289.101 74.9 289.564 74.9833 289.964 75.15C290.364 75.3167 290.708 75.56 290.994 75.88L289.984 76.9C289.818 76.7067 289.614 76.55 289.374 76.43C289.141 76.3033 288.844 76.24 288.484 76.24C288.144 76.24 287.891 76.3 287.724 76.42C287.558 76.54 287.474 76.7067 287.474 76.92C287.474 77.16 287.538 77.3333 287.664 77.44C287.798 77.5467 288.011 77.6233 288.304 77.67L288.994 77.78C289.714 77.8933 290.248 78.1167 290.594 78.45C290.941 78.7767 291.114 79.2433 291.114 79.85C291.114 80.1833 291.054 80.49 290.934 80.77C290.814 81.05 290.638 81.29 290.404 81.49C290.178 81.69 289.894 81.8467 289.554 81.96C289.214 82.0667 288.828 82.12 288.394 82.12ZM298.174 82L297.674 80.34H295.344L294.844 82H293.304L295.604 75.02H297.484L299.754 82H298.174ZM296.524 76.4H296.474L295.704 79.05H297.304L296.524 76.4ZM304.476 76.37V82H302.956V76.37H301.066V75.02H306.366V76.37H304.476Z" fill="black"/>
<path d="M246.818 82V75.02H251.448V76.37H248.338V77.8H250.988V79.14H248.338V82H246.818ZM255.687 82H254.167V75.02H257.477C257.797 75.02 258.087 75.0733 258.347 75.18C258.607 75.2867 258.827 75.44 259.007 75.64C259.194 75.8333 259.337 76.0667 259.437 76.34C259.537 76.6133 259.587 76.9167 259.587 77.25C259.587 77.7233 259.481 78.1367 259.267 78.49C259.061 78.8433 258.744 79.1 258.317 79.26L259.687 82H257.997L256.777 79.44H255.687V82ZM257.287 78.16C257.514 78.16 257.691 78.1033 257.817 77.99C257.951 77.87 258.017 77.6967 258.017 77.47V77.03C258.017 76.8033 257.951 76.6333 257.817 76.52C257.691 76.4 257.514 76.34 257.287 76.34H255.687V78.16H257.287ZM262.136 82V80.79H263.036V76.23H262.136V75.02H265.456V76.23H264.556V80.79H265.456V82H262.136Z" fill="black"/>
<path d="M208.17 76.37V82H206.65V76.37H204.76V75.02H210.06V76.37H208.17ZM216.78 79.14H214.12V82H212.6V75.02H214.12V77.8H216.78V75.02H218.3V82H216.78V79.14ZM222.776 75.02V79.3C222.776 79.7933 222.873 80.1633 223.066 80.41C223.26 80.65 223.583 80.77 224.036 80.77C224.49 80.77 224.813 80.65 225.006 80.41C225.2 80.1633 225.296 79.7933 225.296 79.3V75.02H226.776V79.14C226.776 79.6533 226.726 80.1 226.626 80.48C226.533 80.8533 226.376 81.1633 226.156 81.41C225.936 81.65 225.653 81.83 225.306 81.95C224.96 82.0633 224.536 82.12 224.036 82.12C223.536 82.12 223.113 82.0633 222.766 81.95C222.42 81.83 222.136 81.65 221.916 81.41C221.696 81.1633 221.536 80.8533 221.436 80.48C221.343 80.1 221.296 79.6533 221.296 79.14V75.02H222.776Z" fill="black"/>
<path d="M164.983 82L163.403 75.02H164.903L165.563 78.37L165.933 80.31H165.963L166.403 78.37L167.173 75.02H168.833L169.613 78.37L170.043 80.31H170.073L170.443 78.37L171.113 75.02H172.553L170.933 82H169.203L168.323 78.22L167.983 76.69H167.953L167.603 78.22L166.723 82H164.983ZM175.11 82V75.02H179.86V76.37H176.63V77.8H179.4V79.14H176.63V80.65H179.86V82H175.11ZM182.684 75.02H185.314C185.774 75.02 186.194 75.0933 186.574 75.24C186.954 75.3867 187.277 75.6067 187.544 75.9C187.811 76.1867 188.017 76.55 188.164 76.99C188.311 77.4233 188.384 77.93 188.384 78.51C188.384 79.09 188.311 79.6 188.164 80.04C188.017 80.4733 187.811 80.8367 187.544 81.13C187.277 81.4167 186.954 81.6333 186.574 81.78C186.194 81.9267 185.774 82 185.314 82H182.684V75.02ZM185.314 80.65C185.767 80.65 186.124 80.5233 186.384 80.27C186.644 80.0167 186.774 79.61 186.774 79.05V77.97C186.774 77.41 186.644 77.0033 186.384 76.75C186.124 76.4967 185.767 76.37 185.314 76.37H184.204V80.65H185.314Z" fill="black"/>
<path d="M128.751 76.37V82H127.231V76.37H125.341V75.02H130.641V76.37H128.751ZM134.621 75.02V79.3C134.621 79.7933 134.718 80.1633 134.911 80.41C135.104 80.65 135.428 80.77 135.881 80.77C136.334 80.77 136.658 80.65 136.851 80.41C137.044 80.1633 137.141 79.7933 137.141 79.3V75.02H138.621V79.14C138.621 79.6533 138.571 80.1 138.471 80.48C138.378 80.8533 138.221 81.1633 138.001 81.41C137.781 81.65 137.498 81.83 137.151 81.95C136.804 82.0633 136.381 82.12 135.881 82.12C135.381 82.12 134.958 82.0633 134.611 81.95C134.264 81.83 133.981 81.65 133.761 81.41C133.541 81.1633 133.381 80.8533 133.281 80.48C133.188 80.1 133.141 79.6533 133.141 79.14V75.02H134.621ZM141.624 82V75.02H146.374V76.37H143.144V77.8H145.914V79.14H143.144V80.65H146.374V82H141.624Z" fill="black"/>
<path d="M89.2058 77.42H89.1758L88.6658 78.44L87.3058 80.91L85.9758 78.45L85.4458 77.35H85.4158V82H83.9858V75.02H85.5958L87.3058 78.29H87.3258L89.0158 75.02H90.6358V82H89.2058V77.42ZM96.4792 82.12C96.0192 82.12 95.5992 82.0433 95.2192 81.89C94.8392 81.7367 94.5158 81.51 94.2492 81.21C93.9825 80.9033 93.7758 80.5267 93.6292 80.08C93.4825 79.6267 93.4092 79.1033 93.4092 78.51C93.4092 77.9167 93.4825 77.3967 93.6292 76.95C93.7758 76.4967 93.9825 76.12 94.2492 75.82C94.5158 75.5133 94.8392 75.2833 95.2192 75.13C95.5992 74.9767 96.0192 74.9 96.4792 74.9C96.9392 74.9 97.3592 74.9767 97.7392 75.13C98.1192 75.2833 98.4425 75.5133 98.7092 75.82C98.9758 76.12 99.1825 76.4967 99.3292 76.95C99.4758 77.3967 99.5492 77.9167 99.5492 78.51C99.5492 79.1033 99.4758 79.6267 99.3292 80.08C99.1825 80.5267 98.9758 80.9033 98.7092 81.21C98.4425 81.51 98.1192 81.7367 97.7392 81.89C97.3592 82.0433 96.9392 82.12 96.4792 82.12ZM96.4792 80.77C96.9392 80.77 97.2958 80.62 97.5492 80.32C97.8092 80.02 97.9392 79.59 97.9392 79.03V77.99C97.9392 77.43 97.8092 77 97.5492 76.7C97.2958 76.4 96.9392 76.25 96.4792 76.25C96.0192 76.25 95.6592 76.4 95.3992 76.7C95.1458 77 95.0192 77.43 95.0192 77.99V79.03C95.0192 79.59 95.1458 80.02 95.3992 80.32C95.6592 80.62 96.0192 80.77 96.4792 80.77ZM104.448 78.7L103.778 77.3H103.748V82H102.318V75.02H103.978L105.888 78.32L106.558 79.72H106.588V75.02H108.018V82H106.358L104.448 78.7Z" fill="black"/>
<path d="M47.32 82.12C46.7067 82.12 46.1867 82.0167 45.76 81.81C45.3334 81.5967 44.97 81.3233 44.67 80.99L45.67 79.98C46.1434 80.5133 46.7267 80.78 47.42 80.78C47.7934 80.78 48.07 80.7033 48.25 80.55C48.43 80.3967 48.52 80.1933 48.52 79.94C48.52 79.7467 48.4667 79.5867 48.36 79.46C48.2534 79.3267 48.0367 79.2367 47.71 79.19L47.02 79.1C46.28 79.0067 45.7367 78.7833 45.39 78.43C45.05 78.0767 44.88 77.6067 44.88 77.02C44.88 76.7067 44.94 76.42 45.06 76.16C45.18 75.9 45.35 75.6767 45.57 75.49C45.7967 75.3033 46.07 75.16 46.39 75.06C46.7167 74.9533 47.0867 74.9 47.5 74.9C48.0267 74.9 48.49 74.9833 48.89 75.15C49.29 75.3167 49.6334 75.56 49.92 75.88L48.91 76.9C48.7434 76.7067 48.54 76.55 48.3 76.43C48.0667 76.3033 47.77 76.24 47.41 76.24C47.07 76.24 46.8167 76.3 46.65 76.42C46.4834 76.54 46.4 76.7067 46.4 76.92C46.4 77.16 46.4634 77.3333 46.59 77.44C46.7234 77.5467 46.9367 77.6233 47.23 77.67L47.92 77.78C48.64 77.8933 49.1734 78.1167 49.52 78.45C49.8667 78.7767 50.04 79.2433 50.04 79.85C50.04 80.1833 49.98 80.49 49.86 80.77C49.74 81.05 49.5634 81.29 49.33 81.49C49.1034 81.69 48.82 81.8467 48.48 81.96C48.14 82.0667 47.7534 82.12 47.32 82.12ZM54.2403 75.02V79.3C54.2403 79.7933 54.3369 80.1633 54.5303 80.41C54.7236 80.65 55.0469 80.77 55.5003 80.77C55.9536 80.77 56.2769 80.65 56.4703 80.41C56.6636 80.1633 56.7603 79.7933 56.7603 79.3V75.02H58.2403V79.14C58.2403 79.6533 58.1903 80.1 58.0903 80.48C57.9969 80.8533 57.8403 81.1633 57.6203 81.41C57.4003 81.65 57.1169 81.83 56.7703 81.95C56.4236 82.0633 56.0003 82.12 55.5003 82.12C55.0003 82.12 54.5769 82.0633 54.2303 81.95C53.8836 81.83 53.6003 81.65 53.3803 81.41C53.1603 81.1633 53.0003 80.8533 52.9003 80.48C52.8069 80.1 52.7603 79.6533 52.7603 79.14V75.02H54.2403ZM63.3736 78.7L62.7036 77.3H62.6736V82H61.2436V75.02H62.9036L64.8136 78.32L65.4836 79.72H65.5136V75.02H66.9436V82H65.2836L63.3736 78.7Z" fill="#F42727"/>
<path d="M142.149 38.832H145.893C146.586 38.832 147.215 38.9493 147.781 39.184C148.346 39.4187 148.826 39.7707 149.221 40.24C149.626 40.6987 149.935 41.28 150.149 41.984C150.362 42.6773 150.469 43.488 150.469 44.416C150.469 45.344 150.362 46.16 150.149 46.864C149.935 47.5573 149.626 48.1387 149.221 48.608C148.826 49.0667 148.346 49.4133 147.781 49.648C147.215 49.8827 146.586 50 145.893 50H142.149V38.832ZM145.893 48.816C146.351 48.816 146.773 48.7413 147.157 48.592C147.541 48.432 147.871 48.2027 148.149 47.904C148.426 47.6053 148.639 47.2427 148.789 46.816C148.949 46.3787 149.029 45.8827 149.029 45.328V43.504C149.029 42.9493 148.949 42.4587 148.789 42.032C148.639 41.5947 148.426 41.2267 148.149 40.928C147.871 40.6293 147.541 40.4053 147.157 40.256C146.773 40.096 146.351 40.016 145.893 40.016H143.493V48.816H145.893ZM155.979 50.192C155.414 50.192 154.902 50.0907 154.443 49.888C153.995 49.6853 153.606 49.3973 153.275 49.024C152.955 48.64 152.704 48.1867 152.523 47.664C152.352 47.1307 152.267 46.5333 152.267 45.872C152.267 45.2213 152.352 44.6293 152.523 44.096C152.704 43.5627 152.955 43.1093 153.275 42.736C153.606 42.352 153.995 42.0587 154.443 41.856C154.902 41.6533 155.414 41.552 155.979 41.552C156.534 41.552 157.03 41.6533 157.467 41.856C157.904 42.0587 158.278 42.3413 158.587 42.704C158.896 43.056 159.131 43.4773 159.291 43.968C159.462 44.4587 159.547 44.9973 159.547 45.584V46.192H153.611V46.576C153.611 46.928 153.664 47.2587 153.771 47.568C153.888 47.8667 154.048 48.128 154.251 48.352C154.464 48.576 154.72 48.752 155.019 48.88C155.328 49.008 155.675 49.072 156.059 49.072C156.582 49.072 157.035 48.9493 157.419 48.704C157.814 48.4587 158.118 48.1067 158.331 47.648L159.243 48.304C158.976 48.8693 158.56 49.328 157.995 49.68C157.43 50.0213 156.758 50.192 155.979 50.192ZM155.979 42.624C155.627 42.624 155.307 42.688 155.019 42.816C154.731 42.9333 154.48 43.104 154.267 43.328C154.064 43.552 153.904 43.8187 153.787 44.128C153.67 44.4267 153.611 44.7573 153.611 45.12V45.232H158.171V45.056C158.171 44.32 157.968 43.7333 157.563 43.296C157.168 42.848 156.64 42.624 155.979 42.624ZM164.848 50.192C164.272 50.192 163.755 50.0907 163.296 49.888C162.838 49.6853 162.448 49.3973 162.128 49.024C161.819 48.6507 161.579 48.1973 161.408 47.664C161.248 47.1307 161.168 46.5333 161.168 45.872C161.168 45.2107 161.248 44.6133 161.408 44.08C161.579 43.5467 161.819 43.0933 162.128 42.72C162.448 42.3467 162.838 42.0587 163.296 41.856C163.755 41.6533 164.272 41.552 164.848 41.552C165.67 41.552 166.326 41.7333 166.816 42.096C167.318 42.448 167.691 42.912 167.936 43.488L166.864 44.032C166.715 43.6053 166.47 43.2747 166.128 43.04C165.787 42.8053 165.36 42.688 164.848 42.688C164.464 42.688 164.128 42.752 163.84 42.88C163.552 42.9973 163.312 43.168 163.12 43.392C162.928 43.6053 162.784 43.8667 162.688 44.176C162.592 44.4747 162.544 44.8053 162.544 45.168V46.576C162.544 47.3013 162.736 47.8987 163.12 48.368C163.515 48.8267 164.091 49.056 164.848 49.056C165.883 49.056 166.63 48.576 167.088 47.616L168.016 48.24C167.75 48.8373 167.35 49.312 166.816 49.664C166.294 50.016 165.638 50.192 164.848 50.192ZM181.012 50H173.684V48.624L177.332 45.264C177.855 44.784 178.292 44.2773 178.644 43.744C178.996 43.2 179.172 42.656 179.172 42.112V41.92C179.172 41.3013 179.002 40.8 178.66 40.416C178.319 40.032 177.802 39.84 177.108 39.84C176.767 39.84 176.468 39.888 176.212 39.984C175.956 40.08 175.732 40.2133 175.54 40.384C175.359 40.5547 175.204 40.7573 175.076 40.992C174.959 41.216 174.863 41.4613 174.788 41.728L173.588 41.264C173.695 40.9333 173.839 40.6133 174.02 40.304C174.212 39.984 174.447 39.7013 174.724 39.456C175.012 39.2107 175.354 39.0133 175.748 38.864C176.154 38.7147 176.628 38.64 177.172 38.64C177.716 38.64 178.202 38.72 178.628 38.88C179.055 39.04 179.412 39.264 179.7 39.552C179.988 39.84 180.207 40.1813 180.356 40.576C180.516 40.9707 180.596 41.408 180.596 41.888C180.596 42.3253 180.532 42.7307 180.404 43.104C180.287 43.4773 180.122 43.8347 179.908 44.176C179.695 44.5067 179.434 44.832 179.124 45.152C178.826 45.472 178.5 45.792 178.148 46.112L175.14 48.816H181.012V50ZM186.998 50.192C185.665 50.192 184.689 49.6853 184.07 48.672C183.462 47.6587 183.158 46.24 183.158 44.416C183.158 42.592 183.462 41.1733 184.07 40.16C184.689 39.1467 185.665 38.64 186.998 38.64C188.331 38.64 189.302 39.1467 189.91 40.16C190.529 41.1733 190.838 42.592 190.838 44.416C190.838 46.24 190.529 47.6587 189.91 48.672C189.302 49.6853 188.331 50.192 186.998 50.192ZM186.998 49.024C187.435 49.024 187.809 48.9333 188.118 48.752C188.427 48.5707 188.678 48.3147 188.87 47.984C189.062 47.6533 189.201 47.264 189.286 46.816C189.382 46.368 189.43 45.872 189.43 45.328V43.504C189.43 42.96 189.382 42.464 189.286 42.016C189.201 41.568 189.062 41.1787 188.87 40.848C188.678 40.5173 188.427 40.2613 188.118 40.08C187.809 39.8987 187.435 39.808 186.998 39.808C186.561 39.808 186.187 39.8987 185.878 40.08C185.569 40.2613 185.318 40.5173 185.126 40.848C184.934 41.1787 184.79 41.568 184.694 42.016C184.609 42.464 184.566 42.96 184.566 43.504V45.328C184.566 45.872 184.609 46.368 184.694 46.816C184.79 47.264 184.934 47.6533 185.126 47.984C185.318 48.3147 185.569 48.5707 185.878 48.752C186.187 48.9333 186.561 49.024 186.998 49.024ZM200.44 50H193.112V48.624L196.76 45.264C197.283 44.784 197.72 44.2773 198.072 43.744C198.424 43.2 198.6 42.656 198.6 42.112V41.92C198.6 41.3013 198.429 40.8 198.088 40.416C197.747 40.032 197.229 39.84 196.536 39.84C196.195 39.84 195.896 39.888 195.64 39.984C195.384 40.08 195.16 40.2133 194.968 40.384C194.787 40.5547 194.632 40.7573 194.504 40.992C194.387 41.216 194.291 41.4613 194.216 41.728L193.016 41.264C193.123 40.9333 193.267 40.6133 193.448 40.304C193.64 39.984 193.875 39.7013 194.152 39.456C194.44 39.2107 194.781 39.0133 195.176 38.864C195.581 38.7147 196.056 38.64 196.6 38.64C197.144 38.64 197.629 38.72 198.056 38.88C198.483 39.04 198.84 39.264 199.128 39.552C199.416 39.84 199.635 40.1813 199.784 40.576C199.944 40.9707 200.024 41.408 200.024 41.888C200.024 42.3253 199.96 42.7307 199.832 43.104C199.715 43.4773 199.549 43.8347 199.336 44.176C199.123 44.5067 198.861 44.832 198.552 45.152C198.253 45.472 197.928 45.792 197.576 46.112L194.568 48.816H200.44V50ZM203.034 50V48.816H206.154V39.824H206.042L203.226 42.448L202.442 41.6L205.402 38.832H207.498V48.816H210.378V50H203.034Z" fill="#132C14"/>
<path d="M126 50L120 44L126 38" stroke="#00B0FF" stroke-width="2" stroke-linecap="round" stroke-linejoin="round"/>
<path d="M226 50L232 44L226 38" stroke="#00B0FF" stroke-width="2" stroke-linecap="round" stroke-linejoin="round"/>
<defs>
<filter id="filter0_d" x="0" y="0" width="352" height="340" filterUnits="userSpaceOnUse" color-interpolation-filters="sRGB">
<feFlood flood-opacity="0" result="BackgroundImageFix"/>
<feColorMatrix in="SourceAlpha" type="matrix" values="0 0 0 0 0 0 0 0 0 0 0 0 0 0 0 0 0 0 127 0"/>
<feOffset dy="4"/>
<feGaussianBlur stdDeviation="6"/>
<feColorMatrix type="matrix" values="0 0 0 0 0 0 0 0 0 0 0 0 0 0 0 0 0 0 0.25 0"/>
<feBlend mode="normal" in2="BackgroundImageFix" result="effect1_dropShadow"/>
<feBlend mode="normal" in="SourceGraphic" in2="effect1_dropShadow" result="shape"/>
</filter>
</defs>
</svg>
