<svg width="600" height="367" viewBox="0 0 600 367" fill="none" xmlns="http://www.w3.org/2000/svg">
<path d="M0 330H600" stroke="#BEBEBE"/>
<rect x="34" width="80" height="330" fill="#00B0FF"/>
<path d="M48.112 347.544V360H46.474V350.712L42.334 360H41.182L37.024 350.694V360H35.386V347.544H37.15L41.758 357.84L46.366 347.544H48.112ZM51.7359 348.534C51.4239 348.534 51.1599 348.426 50.9439 348.21C50.7279 347.994 50.6199 347.73 50.6199 347.418C50.6199 347.106 50.7279 346.842 50.9439 346.626C51.1599 346.41 51.4239 346.302 51.7359 346.302C52.0359 346.302 52.2879 346.41 52.4919 346.626C52.7079 346.842 52.8159 347.106 52.8159 347.418C52.8159 347.73 52.7079 347.994 52.4919 348.21C52.2879 348.426 52.0359 348.534 51.7359 348.534ZM52.5279 350.136V360H50.8899V350.136H52.5279ZM60.1256 349.956C61.3256 349.956 62.2976 350.322 63.0416 351.054C63.7856 351.774 64.1576 352.818 64.1576 354.186V360H62.5376V354.42C62.5376 353.436 62.2916 352.686 61.7996 352.17C61.3076 351.642 60.6356 351.378 59.7836 351.378C58.9196 351.378 58.2296 351.648 57.7136 352.188C57.2096 352.728 56.9576 353.514 56.9576 354.546V360H55.3196V350.136H56.9576V351.54C57.2816 351.036 57.7196 350.646 58.2716 350.37C58.8356 350.094 59.4536 349.956 60.1256 349.956ZM70.9013 349.974C71.7533 349.974 72.4973 350.16 73.1333 350.532C73.7813 350.904 74.2613 351.372 74.5733 351.936V350.136H76.2293V360.216C76.2293 361.116 76.0373 361.914 75.6533 362.61C75.2693 363.318 74.7173 363.87 73.9973 364.266C73.2893 364.662 72.4613 364.86 71.5133 364.86C70.2173 364.86 69.1373 364.554 68.2733 363.942C67.4093 363.33 66.8993 362.496 66.7433 361.44H68.3633C68.5433 362.04 68.9153 362.52 69.4793 362.88C70.0433 363.252 70.7213 363.438 71.5133 363.438C72.4133 363.438 73.1453 363.156 73.7093 362.592C74.2853 362.028 74.5733 361.236 74.5733 360.216V358.146C74.2493 358.722 73.7693 359.202 73.1333 359.586C72.4973 359.97 71.7533 360.162 70.9013 360.162C70.0253 360.162 69.2273 359.946 68.5073 359.514C67.7993 359.082 67.2413 358.476 66.8333 357.696C66.4253 356.916 66.2213 356.028 66.2213 355.032C66.2213 354.024 66.4253 353.142 66.8333 352.386C67.2413 351.618 67.7993 351.024 68.5073 350.604C69.2273 350.184 70.0253 349.974 70.9013 349.974ZM74.5733 355.05C74.5733 354.306 74.4233 353.658 74.1233 353.106C73.8233 352.554 73.4153 352.134 72.8993 351.846C72.3953 351.546 71.8373 351.396 71.2253 351.396C70.6133 351.396 70.0553 351.54 69.5513 351.828C69.0473 352.116 68.6453 352.536 68.3453 353.088C68.0453 353.64 67.8953 354.288 67.8953 355.032C67.8953 355.788 68.0453 356.448 68.3453 357.012C68.6453 357.564 69.0473 357.99 69.5513 358.29C70.0553 358.578 70.6133 358.722 71.2253 358.722C71.8373 358.722 72.3953 358.578 72.8993 358.29C73.4153 357.99 73.8233 357.564 74.1233 357.012C74.4233 356.448 74.5733 355.794 74.5733 355.05ZM83.0653 349.974C83.9173 349.974 84.6613 350.16 85.2973 350.532C85.9453 350.904 86.4253 351.372 86.7373 351.936V350.136H88.3933V360.216C88.3933 361.116 88.2013 361.914 87.8173 362.61C87.4333 363.318 86.8813 363.87 86.1613 364.266C85.4533 364.662 84.6253 364.86 83.6773 364.86C82.3813 364.86 81.3013 364.554 80.4373 363.942C79.5733 363.33 79.0633 362.496 78.9073 361.44H80.5273C80.7073 362.04 81.0793 362.52 81.6433 362.88C82.2073 363.252 82.8853 363.438 83.6773 363.438C84.5773 363.438 85.3093 363.156 85.8733 362.592C86.4493 362.028 86.7373 361.236 86.7373 360.216V358.146C86.4133 358.722 85.9333 359.202 85.2973 359.586C84.6613 359.97 83.9173 360.162 83.0653 360.162C82.1893 360.162 81.3913 359.946 80.6713 359.514C79.9633 359.082 79.4053 358.476 78.9973 357.696C78.5893 356.916 78.3853 356.028 78.3853 355.032C78.3853 354.024 78.5893 353.142 78.9973 352.386C79.4053 351.618 79.9633 351.024 80.6713 350.604C81.3913 350.184 82.1893 349.974 83.0653 349.974ZM86.7373 355.05C86.7373 354.306 86.5873 353.658 86.2873 353.106C85.9873 352.554 85.5793 352.134 85.0633 351.846C84.5593 351.546 84.0013 351.396 83.3893 351.396C82.7773 351.396 82.2193 351.54 81.7153 351.828C81.2113 352.116 80.8093 352.536 80.5093 353.088C80.2093 353.64 80.0593 354.288 80.0593 355.032C80.0593 355.788 80.2093 356.448 80.5093 357.012C80.8093 357.564 81.2113 357.99 81.7153 358.29C82.2193 358.578 82.7773 358.722 83.3893 358.722C84.0013 358.722 84.5593 358.578 85.0633 358.29C85.5793 357.99 85.9873 357.564 86.2873 357.012C86.5873 356.448 86.7373 355.794 86.7373 355.05ZM99.9094 350.136V360H98.2714V358.542C97.9594 359.046 97.5214 359.442 96.9574 359.73C96.4054 360.006 95.7934 360.144 95.1214 360.144C94.3534 360.144 93.6634 359.988 93.0514 359.676C92.4394 359.352 91.9534 358.872 91.5934 358.236C91.2454 357.6 91.0714 356.826 91.0714 355.914V350.136H92.6914V355.698C92.6914 356.67 92.9374 357.42 93.4294 357.948C93.9214 358.464 94.5934 358.722 95.4454 358.722C96.3214 358.722 97.0114 358.452 97.5154 357.912C98.0194 357.372 98.2714 356.586 98.2714 355.554V350.136H99.9094ZM106.772 348.48V346.986H110.156V360H108.5V348.48H106.772Z" fill="black"/>
<path d="M188.112 347.544V360H186.474V350.712L182.334 360H181.182L177.024 350.694V360H175.386V347.544H177.15L181.758 357.84L186.366 347.544H188.112ZM191.736 348.534C191.424 348.534 191.16 348.426 190.944 348.21C190.728 347.994 190.62 347.73 190.62 347.418C190.62 347.106 190.728 346.842 190.944 346.626C191.16 346.41 191.424 346.302 191.736 346.302C192.036 346.302 192.288 346.41 192.492 346.626C192.708 346.842 192.816 347.106 192.816 347.418C192.816 347.73 192.708 347.994 192.492 348.21C192.288 348.426 192.036 348.534 191.736 348.534ZM192.528 350.136V360H190.89V350.136H192.528ZM200.126 349.956C201.326 349.956 202.298 350.322 203.042 351.054C203.786 351.774 204.158 352.818 204.158 354.186V360H202.538V354.42C202.538 353.436 202.292 352.686 201.8 352.17C201.308 351.642 200.636 351.378 199.784 351.378C198.92 351.378 198.23 351.648 197.714 352.188C197.21 352.728 196.958 353.514 196.958 354.546V360H195.32V350.136H196.958V351.54C197.282 351.036 197.72 350.646 198.272 350.37C198.836 350.094 199.454 349.956 200.126 349.956ZM210.901 349.974C211.753 349.974 212.497 350.16 213.133 350.532C213.781 350.904 214.261 351.372 214.573 351.936V350.136H216.229V360.216C216.229 361.116 216.037 361.914 215.653 362.61C215.269 363.318 214.717 363.87 213.997 364.266C213.289 364.662 212.461 364.86 211.513 364.86C210.217 364.86 209.137 364.554 208.273 363.942C207.409 363.33 206.899 362.496 206.743 361.44H208.363C208.543 362.04 208.915 362.52 209.479 362.88C210.043 363.252 210.721 363.438 211.513 363.438C212.413 363.438 213.145 363.156 213.709 362.592C214.285 362.028 214.573 361.236 214.573 360.216V358.146C214.249 358.722 213.769 359.202 213.133 359.586C212.497 359.97 211.753 360.162 210.901 360.162C210.025 360.162 209.227 359.946 208.507 359.514C207.799 359.082 207.241 358.476 206.833 357.696C206.425 356.916 206.221 356.028 206.221 355.032C206.221 354.024 206.425 353.142 206.833 352.386C207.241 351.618 207.799 351.024 208.507 350.604C209.227 350.184 210.025 349.974 210.901 349.974ZM214.573 355.05C214.573 354.306 214.423 353.658 214.123 353.106C213.823 352.554 213.415 352.134 212.899 351.846C212.395 351.546 211.837 351.396 211.225 351.396C210.613 351.396 210.055 351.54 209.551 351.828C209.047 352.116 208.645 352.536 208.345 353.088C208.045 353.64 207.895 354.288 207.895 355.032C207.895 355.788 208.045 356.448 208.345 357.012C208.645 357.564 209.047 357.99 209.551 358.29C210.055 358.578 210.613 358.722 211.225 358.722C211.837 358.722 212.395 358.578 212.899 358.29C213.415 357.99 213.823 357.564 214.123 357.012C214.423 356.448 214.573 355.794 214.573 355.05ZM223.065 349.974C223.917 349.974 224.661 350.16 225.297 350.532C225.945 350.904 226.425 351.372 226.737 351.936V350.136H228.393V360.216C228.393 361.116 228.201 361.914 227.817 362.61C227.433 363.318 226.881 363.87 226.161 364.266C225.453 364.662 224.625 364.86 223.677 364.86C222.381 364.86 221.301 364.554 220.437 363.942C219.573 363.33 219.063 362.496 218.907 361.44H220.527C220.707 362.04 221.079 362.52 221.643 362.88C222.207 363.252 222.885 363.438 223.677 363.438C224.577 363.438 225.309 363.156 225.873 362.592C226.449 362.028 226.737 361.236 226.737 360.216V358.146C226.413 358.722 225.933 359.202 225.297 359.586C224.661 359.97 223.917 360.162 223.065 360.162C222.189 360.162 221.391 359.946 220.671 359.514C219.963 359.082 219.405 358.476 218.997 357.696C218.589 356.916 218.385 356.028 218.385 355.032C218.385 354.024 218.589 353.142 218.997 352.386C219.405 351.618 219.963 351.024 220.671 350.604C221.391 350.184 222.189 349.974 223.065 349.974ZM226.737 355.05C226.737 354.306 226.587 353.658 226.287 353.106C225.987 352.554 225.579 352.134 225.063 351.846C224.559 351.546 224.001 351.396 223.389 351.396C222.777 351.396 222.219 351.54 221.715 351.828C221.211 352.116 220.809 352.536 220.509 353.088C220.209 353.64 220.059 354.288 220.059 355.032C220.059 355.788 220.209 356.448 220.509 357.012C220.809 357.564 221.211 357.99 221.715 358.29C222.219 358.578 222.777 358.722 223.389 358.722C224.001 358.722 224.559 358.578 225.063 358.29C225.579 357.99 225.987 357.564 226.287 357.012C226.587 356.448 226.737 355.794 226.737 355.05ZM239.909 350.136V360H238.271V358.542C237.959 359.046 237.521 359.442 236.957 359.73C236.405 360.006 235.793 360.144 235.121 360.144C234.353 360.144 233.663 359.988 233.051 359.676C232.439 359.352 231.953 358.872 231.593 358.236C231.245 357.6 231.071 356.826 231.071 355.914V350.136H232.691V355.698C232.691 356.67 232.937 357.42 233.429 357.948C233.921 358.464 234.593 358.722 235.445 358.722C236.321 358.722 237.011 358.452 237.515 357.912C238.019 357.372 238.271 356.586 238.271 355.554V350.136H239.909ZM247.006 358.686C248.53 357.462 249.724 356.46 250.588 355.68C251.452 354.888 252.178 354.066 252.766 353.214C253.366 352.35 253.666 351.504 253.666 350.676C253.666 349.896 253.474 349.284 253.09 348.84C252.718 348.384 252.112 348.156 251.272 348.156C250.456 348.156 249.82 348.414 249.364 348.93C248.92 349.434 248.68 350.112 248.644 350.964H247.06C247.108 349.62 247.516 348.582 248.284 347.85C249.052 347.118 250.042 346.752 251.254 346.752C252.49 346.752 253.468 347.094 254.188 347.778C254.92 348.462 255.286 349.404 255.286 350.604C255.286 351.6 254.986 352.572 254.386 353.52C253.798 354.456 253.126 355.284 252.37 356.004C251.614 356.712 250.648 357.54 249.472 358.488H255.664V359.856H247.006V358.686Z" fill="black"/>
<path d="M328.112 347.544V360H326.474V350.712L322.334 360H321.182L317.024 350.694V360H315.386V347.544H317.15L321.758 357.84L326.366 347.544H328.112ZM331.736 348.534C331.424 348.534 331.16 348.426 330.944 348.21C330.728 347.994 330.62 347.73 330.62 347.418C330.62 347.106 330.728 346.842 330.944 346.626C331.16 346.41 331.424 346.302 331.736 346.302C332.036 346.302 332.288 346.41 332.492 346.626C332.708 346.842 332.816 347.106 332.816 347.418C332.816 347.73 332.708 347.994 332.492 348.21C332.288 348.426 332.036 348.534 331.736 348.534ZM332.528 350.136V360H330.89V350.136H332.528ZM340.126 349.956C341.326 349.956 342.298 350.322 343.042 351.054C343.786 351.774 344.158 352.818 344.158 354.186V360H342.538V354.42C342.538 353.436 342.292 352.686 341.8 352.17C341.308 351.642 340.636 351.378 339.784 351.378C338.92 351.378 338.23 351.648 337.714 352.188C337.21 352.728 336.958 353.514 336.958 354.546V360H335.32V350.136H336.958V351.54C337.282 351.036 337.72 350.646 338.272 350.37C338.836 350.094 339.454 349.956 340.126 349.956ZM350.901 349.974C351.753 349.974 352.497 350.16 353.133 350.532C353.781 350.904 354.261 351.372 354.573 351.936V350.136H356.229V360.216C356.229 361.116 356.037 361.914 355.653 362.61C355.269 363.318 354.717 363.87 353.997 364.266C353.289 364.662 352.461 364.86 351.513 364.86C350.217 364.86 349.137 364.554 348.273 363.942C347.409 363.33 346.899 362.496 346.743 361.44H348.363C348.543 362.04 348.915 362.52 349.479 362.88C350.043 363.252 350.721 363.438 351.513 363.438C352.413 363.438 353.145 363.156 353.709 362.592C354.285 362.028 354.573 361.236 354.573 360.216V358.146C354.249 358.722 353.769 359.202 353.133 359.586C352.497 359.97 351.753 360.162 350.901 360.162C350.025 360.162 349.227 359.946 348.507 359.514C347.799 359.082 347.241 358.476 346.833 357.696C346.425 356.916 346.221 356.028 346.221 355.032C346.221 354.024 346.425 353.142 346.833 352.386C347.241 351.618 347.799 351.024 348.507 350.604C349.227 350.184 350.025 349.974 350.901 349.974ZM354.573 355.05C354.573 354.306 354.423 353.658 354.123 353.106C353.823 352.554 353.415 352.134 352.899 351.846C352.395 351.546 351.837 351.396 351.225 351.396C350.613 351.396 350.055 351.54 349.551 351.828C349.047 352.116 348.645 352.536 348.345 353.088C348.045 353.64 347.895 354.288 347.895 355.032C347.895 355.788 348.045 356.448 348.345 357.012C348.645 357.564 349.047 357.99 349.551 358.29C350.055 358.578 350.613 358.722 351.225 358.722C351.837 358.722 352.395 358.578 352.899 358.29C353.415 357.99 353.823 357.564 354.123 357.012C354.423 356.448 354.573 355.794 354.573 355.05ZM363.065 349.974C363.917 349.974 364.661 350.16 365.297 350.532C365.945 350.904 366.425 351.372 366.737 351.936V350.136H368.393V360.216C368.393 361.116 368.201 361.914 367.817 362.61C367.433 363.318 366.881 363.87 366.161 364.266C365.453 364.662 364.625 364.86 363.677 364.86C362.381 364.86 361.301 364.554 360.437 363.942C359.573 363.33 359.063 362.496 358.907 361.44H360.527C360.707 362.04 361.079 362.52 361.643 362.88C362.207 363.252 362.885 363.438 363.677 363.438C364.577 363.438 365.309 363.156 365.873 362.592C366.449 362.028 366.737 361.236 366.737 360.216V358.146C366.413 358.722 365.933 359.202 365.297 359.586C364.661 359.97 363.917 360.162 363.065 360.162C362.189 360.162 361.391 359.946 360.671 359.514C359.963 359.082 359.405 358.476 358.997 357.696C358.589 356.916 358.385 356.028 358.385 355.032C358.385 354.024 358.589 353.142 358.997 352.386C359.405 351.618 359.963 351.024 360.671 350.604C361.391 350.184 362.189 349.974 363.065 349.974ZM366.737 355.05C366.737 354.306 366.587 353.658 366.287 353.106C365.987 352.554 365.579 352.134 365.063 351.846C364.559 351.546 364.001 351.396 363.389 351.396C362.777 351.396 362.219 351.54 361.715 351.828C361.211 352.116 360.809 352.536 360.509 353.088C360.209 353.64 360.059 354.288 360.059 355.032C360.059 355.788 360.209 356.448 360.509 357.012C360.809 357.564 361.211 357.99 361.715 358.29C362.219 358.578 362.777 358.722 363.389 358.722C364.001 358.722 364.559 358.578 365.063 358.29C365.579 357.99 365.987 357.564 366.287 357.012C366.587 356.448 366.737 355.794 366.737 355.05ZM379.909 350.136V360H378.271V358.542C377.959 359.046 377.521 359.442 376.957 359.73C376.405 360.006 375.793 360.144 375.121 360.144C374.353 360.144 373.663 359.988 373.051 359.676C372.439 359.352 371.953 358.872 371.593 358.236C371.245 357.6 371.071 356.826 371.071 355.914V350.136H372.691V355.698C372.691 356.67 372.937 357.42 373.429 357.948C373.921 358.464 374.593 358.722 375.445 358.722C376.321 358.722 377.011 358.452 377.515 357.912C378.019 357.372 378.271 356.586 378.271 355.554V350.136H379.909ZM387.168 350.262C387.252 349.158 387.678 348.294 388.446 347.67C389.214 347.046 390.21 346.734 391.434 346.734C392.25 346.734 392.952 346.884 393.54 347.184C394.14 347.472 394.59 347.868 394.89 348.372C395.202 348.876 395.358 349.446 395.358 350.082C395.358 350.826 395.142 351.468 394.71 352.008C394.29 352.548 393.738 352.896 393.054 353.052V353.142C393.834 353.334 394.452 353.712 394.908 354.276C395.364 354.84 395.592 355.578 395.592 356.49C395.592 357.174 395.436 357.792 395.124 358.344C394.812 358.884 394.344 359.31 393.72 359.622C393.096 359.934 392.346 360.09 391.47 360.09C390.198 360.09 389.154 359.76 388.338 359.1C387.522 358.428 387.066 357.48 386.97 356.256H388.554C388.638 356.976 388.932 357.564 389.436 358.02C389.94 358.476 390.612 358.704 391.452 358.704C392.292 358.704 392.928 358.488 393.36 358.056C393.804 357.612 394.026 357.042 394.026 356.346C394.026 355.446 393.726 354.798 393.126 354.402C392.526 354.006 391.62 353.808 390.408 353.808H389.994V352.44H390.426C391.53 352.428 392.364 352.248 392.928 351.9C393.492 351.54 393.774 350.988 393.774 350.244C393.774 349.608 393.564 349.098 393.144 348.714C392.736 348.33 392.148 348.138 391.38 348.138C390.636 348.138 390.036 348.33 389.58 348.714C389.124 349.098 388.854 349.614 388.77 350.262H387.168Z" fill="black"/>
<path d="M468.112 347.544V360H466.474V350.712L462.334 360H461.182L457.024 350.694V360H455.386V347.544H457.15L461.758 357.84L466.366 347.544H468.112ZM471.736 348.534C471.424 348.534 471.16 348.426 470.944 348.21C470.728 347.994 470.62 347.73 470.62 347.418C470.62 347.106 470.728 346.842 470.944 346.626C471.16 346.41 471.424 346.302 471.736 346.302C472.036 346.302 472.288 346.41 472.492 346.626C472.708 346.842 472.816 347.106 472.816 347.418C472.816 347.73 472.708 347.994 472.492 348.21C472.288 348.426 472.036 348.534 471.736 348.534ZM472.528 350.136V360H470.89V350.136H472.528ZM480.126 349.956C481.326 349.956 482.298 350.322 483.042 351.054C483.786 351.774 484.158 352.818 484.158 354.186V360H482.538V354.42C482.538 353.436 482.292 352.686 481.8 352.17C481.308 351.642 480.636 351.378 479.784 351.378C478.92 351.378 478.23 351.648 477.714 352.188C477.21 352.728 476.958 353.514 476.958 354.546V360H475.32V350.136H476.958V351.54C477.282 351.036 477.72 350.646 478.272 350.37C478.836 350.094 479.454 349.956 480.126 349.956ZM490.901 349.974C491.753 349.974 492.497 350.16 493.133 350.532C493.781 350.904 494.261 351.372 494.573 351.936V350.136H496.229V360.216C496.229 361.116 496.037 361.914 495.653 362.61C495.269 363.318 494.717 363.87 493.997 364.266C493.289 364.662 492.461 364.86 491.513 364.86C490.217 364.86 489.137 364.554 488.273 363.942C487.409 363.33 486.899 362.496 486.743 361.44H488.363C488.543 362.04 488.915 362.52 489.479 362.88C490.043 363.252 490.721 363.438 491.513 363.438C492.413 363.438 493.145 363.156 493.709 362.592C494.285 362.028 494.573 361.236 494.573 360.216V358.146C494.249 358.722 493.769 359.202 493.133 359.586C492.497 359.97 491.753 360.162 490.901 360.162C490.025 360.162 489.227 359.946 488.507 359.514C487.799 359.082 487.241 358.476 486.833 357.696C486.425 356.916 486.221 356.028 486.221 355.032C486.221 354.024 486.425 353.142 486.833 352.386C487.241 351.618 487.799 351.024 488.507 350.604C489.227 350.184 490.025 349.974 490.901 349.974ZM494.573 355.05C494.573 354.306 494.423 353.658 494.123 353.106C493.823 352.554 493.415 352.134 492.899 351.846C492.395 351.546 491.837 351.396 491.225 351.396C490.613 351.396 490.055 351.54 489.551 351.828C489.047 352.116 488.645 352.536 488.345 353.088C488.045 353.64 487.895 354.288 487.895 355.032C487.895 355.788 488.045 356.448 488.345 357.012C488.645 357.564 489.047 357.99 489.551 358.29C490.055 358.578 490.613 358.722 491.225 358.722C491.837 358.722 492.395 358.578 492.899 358.29C493.415 357.99 493.823 357.564 494.123 357.012C494.423 356.448 494.573 355.794 494.573 355.05ZM503.065 349.974C503.917 349.974 504.661 350.16 505.297 350.532C505.945 350.904 506.425 351.372 506.737 351.936V350.136H508.393V360.216C508.393 361.116 508.201 361.914 507.817 362.61C507.433 363.318 506.881 363.87 506.161 364.266C505.453 364.662 504.625 364.86 503.677 364.86C502.381 364.86 501.301 364.554 500.437 363.942C499.573 363.33 499.063 362.496 498.907 361.44H500.527C500.707 362.04 501.079 362.52 501.643 362.88C502.207 363.252 502.885 363.438 503.677 363.438C504.577 363.438 505.309 363.156 505.873 362.592C506.449 362.028 506.737 361.236 506.737 360.216V358.146C506.413 358.722 505.933 359.202 505.297 359.586C504.661 359.97 503.917 360.162 503.065 360.162C502.189 360.162 501.391 359.946 500.671 359.514C499.963 359.082 499.405 358.476 498.997 357.696C498.589 356.916 498.385 356.028 498.385 355.032C498.385 354.024 498.589 353.142 498.997 352.386C499.405 351.618 499.963 351.024 500.671 350.604C501.391 350.184 502.189 349.974 503.065 349.974ZM506.737 355.05C506.737 354.306 506.587 353.658 506.287 353.106C505.987 352.554 505.579 352.134 505.063 351.846C504.559 351.546 504.001 351.396 503.389 351.396C502.777 351.396 502.219 351.54 501.715 351.828C501.211 352.116 500.809 352.536 500.509 353.088C500.209 353.64 500.059 354.288 500.059 355.032C500.059 355.788 500.209 356.448 500.509 357.012C500.809 357.564 501.211 357.99 501.715 358.29C502.219 358.578 502.777 358.722 503.389 358.722C504.001 358.722 504.559 358.578 505.063 358.29C505.579 357.99 505.987 357.564 506.287 357.012C506.587 356.448 506.737 355.794 506.737 355.05ZM519.909 350.136V360H518.271V358.542C517.959 359.046 517.521 359.442 516.957 359.73C516.405 360.006 515.793 360.144 515.121 360.144C514.353 360.144 513.663 359.988 513.051 359.676C512.439 359.352 511.953 358.872 511.593 358.236C511.245 357.6 511.071 356.826 511.071 355.914V350.136H512.691V355.698C512.691 356.67 512.937 357.42 513.429 357.948C513.921 358.464 514.593 358.722 515.445 358.722C516.321 358.722 517.011 358.452 517.515 357.912C518.019 357.372 518.271 356.586 518.271 355.554V350.136H519.909ZM526.808 357.102V355.86L533.126 347.112H535.088V355.68H536.888V357.102H535.088V360H533.468V357.102H526.808ZM533.54 348.822L528.698 355.68H533.54V348.822Z" fill="black"/>
<rect x="314" y="240" width="80" height="90" fill="#00B0FF"/>
<rect x="454" y="200" width="80" height="130" fill="#00B0FF"/>
<rect x="174" y="155" width="80" height="175" fill="#00B0FF"/>
</svg>
