<svg width="607" height="399" viewBox="0 0 607 399" fill="none" xmlns="http://www.w3.org/2000/svg">
<path d="M7 362H607" stroke="#BEBEBE"/>
<path d="M4 360V0" stroke="#BEBEBE"/>
<rect x="41" y="332" width="80" height="30" fill="#00B0FF"/>
<path d="M55.112 379.544V392H53.474V382.712L49.334 392H48.182L44.024 382.694V392H42.386V379.544H44.15L48.758 389.84L53.366 379.544H55.112ZM58.7359 380.534C58.4239 380.534 58.1599 380.426 57.9439 380.21C57.7279 379.994 57.6199 379.73 57.6199 379.418C57.6199 379.106 57.7279 378.842 57.9439 378.626C58.1599 378.41 58.4239 378.302 58.7359 378.302C59.0359 378.302 59.2879 378.41 59.4919 378.626C59.7079 378.842 59.8159 379.106 59.8159 379.418C59.8159 379.73 59.7079 379.994 59.4919 380.21C59.2879 380.426 59.0359 380.534 58.7359 380.534ZM59.5279 382.136V392H57.8899V382.136H59.5279ZM67.1256 381.956C68.3256 381.956 69.2976 382.322 70.0416 383.054C70.7856 383.774 71.1576 384.818 71.1576 386.186V392H69.5376V386.42C69.5376 385.436 69.2916 384.686 68.7996 384.17C68.3076 383.642 67.6356 383.378 66.7836 383.378C65.9196 383.378 65.2296 383.648 64.7136 384.188C64.2096 384.728 63.9576 385.514 63.9576 386.546V392H62.3196V382.136H63.9576V383.54C64.2816 383.036 64.7196 382.646 65.2716 382.37C65.8356 382.094 66.4536 381.956 67.1256 381.956ZM77.9013 381.974C78.7533 381.974 79.4973 382.16 80.1333 382.532C80.7813 382.904 81.2613 383.372 81.5733 383.936V382.136H83.2293V392.216C83.2293 393.116 83.0373 393.914 82.6533 394.61C82.2693 395.318 81.7173 395.87 80.9973 396.266C80.2893 396.662 79.4613 396.86 78.5133 396.86C77.2173 396.86 76.1373 396.554 75.2733 395.942C74.4093 395.33 73.8993 394.496 73.7433 393.44H75.3633C75.5433 394.04 75.9153 394.52 76.4793 394.88C77.0433 395.252 77.7213 395.438 78.5133 395.438C79.4133 395.438 80.1453 395.156 80.7093 394.592C81.2853 394.028 81.5733 393.236 81.5733 392.216V390.146C81.2493 390.722 80.7693 391.202 80.1333 391.586C79.4973 391.97 78.7533 392.162 77.9013 392.162C77.0253 392.162 76.2273 391.946 75.5073 391.514C74.7993 391.082 74.2413 390.476 73.8333 389.696C73.4253 388.916 73.2213 388.028 73.2213 387.032C73.2213 386.024 73.4253 385.142 73.8333 384.386C74.2413 383.618 74.7993 383.024 75.5073 382.604C76.2273 382.184 77.0253 381.974 77.9013 381.974ZM81.5733 387.05C81.5733 386.306 81.4233 385.658 81.1233 385.106C80.8233 384.554 80.4153 384.134 79.8993 383.846C79.3953 383.546 78.8373 383.396 78.2253 383.396C77.6133 383.396 77.0553 383.54 76.5513 383.828C76.0473 384.116 75.6453 384.536 75.3453 385.088C75.0453 385.64 74.8953 386.288 74.8953 387.032C74.8953 387.788 75.0453 388.448 75.3453 389.012C75.6453 389.564 76.0473 389.99 76.5513 390.29C77.0553 390.578 77.6133 390.722 78.2253 390.722C78.8373 390.722 79.3953 390.578 79.8993 390.29C80.4153 389.99 80.8233 389.564 81.1233 389.012C81.4233 388.448 81.5733 387.794 81.5733 387.05ZM90.0653 381.974C90.9173 381.974 91.6613 382.16 92.2973 382.532C92.9453 382.904 93.4253 383.372 93.7373 383.936V382.136H95.3933V392.216C95.3933 393.116 95.2013 393.914 94.8173 394.61C94.4333 395.318 93.8813 395.87 93.1613 396.266C92.4533 396.662 91.6253 396.86 90.6773 396.86C89.3813 396.86 88.3013 396.554 87.4373 395.942C86.5733 395.33 86.0633 394.496 85.9073 393.44H87.5273C87.7073 394.04 88.0793 394.52 88.6433 394.88C89.2073 395.252 89.8853 395.438 90.6773 395.438C91.5773 395.438 92.3093 395.156 92.8733 394.592C93.4493 394.028 93.7373 393.236 93.7373 392.216V390.146C93.4133 390.722 92.9333 391.202 92.2973 391.586C91.6613 391.97 90.9173 392.162 90.0653 392.162C89.1893 392.162 88.3913 391.946 87.6713 391.514C86.9633 391.082 86.4053 390.476 85.9973 389.696C85.5893 388.916 85.3853 388.028 85.3853 387.032C85.3853 386.024 85.5893 385.142 85.9973 384.386C86.4053 383.618 86.9633 383.024 87.6713 382.604C88.3913 382.184 89.1893 381.974 90.0653 381.974ZM93.7373 387.05C93.7373 386.306 93.5873 385.658 93.2873 385.106C92.9873 384.554 92.5793 384.134 92.0633 383.846C91.5593 383.546 91.0013 383.396 90.3893 383.396C89.7773 383.396 89.2193 383.54 88.7153 383.828C88.2113 384.116 87.8093 384.536 87.5093 385.088C87.2093 385.64 87.0593 386.288 87.0593 387.032C87.0593 387.788 87.2093 388.448 87.5093 389.012C87.8093 389.564 88.2113 389.99 88.7153 390.29C89.2193 390.578 89.7773 390.722 90.3893 390.722C91.0013 390.722 91.5593 390.578 92.0633 390.29C92.5793 389.99 92.9873 389.564 93.2873 389.012C93.5873 388.448 93.7373 387.794 93.7373 387.05ZM106.909 382.136V392H105.271V390.542C104.959 391.046 104.521 391.442 103.957 391.73C103.405 392.006 102.793 392.144 102.121 392.144C101.353 392.144 100.663 391.988 100.051 391.676C99.4394 391.352 98.9534 390.872 98.5934 390.236C98.2454 389.6 98.0714 388.826 98.0714 387.914V382.136H99.6914V387.698C99.6914 388.67 99.9374 389.42 100.429 389.948C100.921 390.464 101.593 390.722 102.445 390.722C103.321 390.722 104.011 390.452 104.515 389.912C105.019 389.372 105.271 388.586 105.271 387.554V382.136H106.909ZM113.772 380.48V378.986H117.156V392H115.5V380.48H113.772Z" fill="black"/>
<path d="M195.112 379.544V392H193.474V382.712L189.334 392H188.182L184.024 382.694V392H182.386V379.544H184.15L188.758 389.84L193.366 379.544H195.112ZM198.736 380.534C198.424 380.534 198.16 380.426 197.944 380.21C197.728 379.994 197.62 379.73 197.62 379.418C197.62 379.106 197.728 378.842 197.944 378.626C198.16 378.41 198.424 378.302 198.736 378.302C199.036 378.302 199.288 378.41 199.492 378.626C199.708 378.842 199.816 379.106 199.816 379.418C199.816 379.73 199.708 379.994 199.492 380.21C199.288 380.426 199.036 380.534 198.736 380.534ZM199.528 382.136V392H197.89V382.136H199.528ZM207.126 381.956C208.326 381.956 209.298 382.322 210.042 383.054C210.786 383.774 211.158 384.818 211.158 386.186V392H209.538V386.42C209.538 385.436 209.292 384.686 208.8 384.17C208.308 383.642 207.636 383.378 206.784 383.378C205.92 383.378 205.23 383.648 204.714 384.188C204.21 384.728 203.958 385.514 203.958 386.546V392H202.32V382.136H203.958V383.54C204.282 383.036 204.72 382.646 205.272 382.37C205.836 382.094 206.454 381.956 207.126 381.956ZM217.901 381.974C218.753 381.974 219.497 382.16 220.133 382.532C220.781 382.904 221.261 383.372 221.573 383.936V382.136H223.229V392.216C223.229 393.116 223.037 393.914 222.653 394.61C222.269 395.318 221.717 395.87 220.997 396.266C220.289 396.662 219.461 396.86 218.513 396.86C217.217 396.86 216.137 396.554 215.273 395.942C214.409 395.33 213.899 394.496 213.743 393.44H215.363C215.543 394.04 215.915 394.52 216.479 394.88C217.043 395.252 217.721 395.438 218.513 395.438C219.413 395.438 220.145 395.156 220.709 394.592C221.285 394.028 221.573 393.236 221.573 392.216V390.146C221.249 390.722 220.769 391.202 220.133 391.586C219.497 391.97 218.753 392.162 217.901 392.162C217.025 392.162 216.227 391.946 215.507 391.514C214.799 391.082 214.241 390.476 213.833 389.696C213.425 388.916 213.221 388.028 213.221 387.032C213.221 386.024 213.425 385.142 213.833 384.386C214.241 383.618 214.799 383.024 215.507 382.604C216.227 382.184 217.025 381.974 217.901 381.974ZM221.573 387.05C221.573 386.306 221.423 385.658 221.123 385.106C220.823 384.554 220.415 384.134 219.899 383.846C219.395 383.546 218.837 383.396 218.225 383.396C217.613 383.396 217.055 383.54 216.551 383.828C216.047 384.116 215.645 384.536 215.345 385.088C215.045 385.64 214.895 386.288 214.895 387.032C214.895 387.788 215.045 388.448 215.345 389.012C215.645 389.564 216.047 389.99 216.551 390.29C217.055 390.578 217.613 390.722 218.225 390.722C218.837 390.722 219.395 390.578 219.899 390.29C220.415 389.99 220.823 389.564 221.123 389.012C221.423 388.448 221.573 387.794 221.573 387.05ZM230.065 381.974C230.917 381.974 231.661 382.16 232.297 382.532C232.945 382.904 233.425 383.372 233.737 383.936V382.136H235.393V392.216C235.393 393.116 235.201 393.914 234.817 394.61C234.433 395.318 233.881 395.87 233.161 396.266C232.453 396.662 231.625 396.86 230.677 396.86C229.381 396.86 228.301 396.554 227.437 395.942C226.573 395.33 226.063 394.496 225.907 393.44H227.527C227.707 394.04 228.079 394.52 228.643 394.88C229.207 395.252 229.885 395.438 230.677 395.438C231.577 395.438 232.309 395.156 232.873 394.592C233.449 394.028 233.737 393.236 233.737 392.216V390.146C233.413 390.722 232.933 391.202 232.297 391.586C231.661 391.97 230.917 392.162 230.065 392.162C229.189 392.162 228.391 391.946 227.671 391.514C226.963 391.082 226.405 390.476 225.997 389.696C225.589 388.916 225.385 388.028 225.385 387.032C225.385 386.024 225.589 385.142 225.997 384.386C226.405 383.618 226.963 383.024 227.671 382.604C228.391 382.184 229.189 381.974 230.065 381.974ZM233.737 387.05C233.737 386.306 233.587 385.658 233.287 385.106C232.987 384.554 232.579 384.134 232.063 383.846C231.559 383.546 231.001 383.396 230.389 383.396C229.777 383.396 229.219 383.54 228.715 383.828C228.211 384.116 227.809 384.536 227.509 385.088C227.209 385.64 227.059 386.288 227.059 387.032C227.059 387.788 227.209 388.448 227.509 389.012C227.809 389.564 228.211 389.99 228.715 390.29C229.219 390.578 229.777 390.722 230.389 390.722C231.001 390.722 231.559 390.578 232.063 390.29C232.579 389.99 232.987 389.564 233.287 389.012C233.587 388.448 233.737 387.794 233.737 387.05ZM246.909 382.136V392H245.271V390.542C244.959 391.046 244.521 391.442 243.957 391.73C243.405 392.006 242.793 392.144 242.121 392.144C241.353 392.144 240.663 391.988 240.051 391.676C239.439 391.352 238.953 390.872 238.593 390.236C238.245 389.6 238.071 388.826 238.071 387.914V382.136H239.691V387.698C239.691 388.67 239.937 389.42 240.429 389.948C240.921 390.464 241.593 390.722 242.445 390.722C243.321 390.722 244.011 390.452 244.515 389.912C245.019 389.372 245.271 388.586 245.271 387.554V382.136H246.909ZM254.006 390.686C255.53 389.462 256.724 388.46 257.588 387.68C258.452 386.888 259.178 386.066 259.766 385.214C260.366 384.35 260.666 383.504 260.666 382.676C260.666 381.896 260.474 381.284 260.09 380.84C259.718 380.384 259.112 380.156 258.272 380.156C257.456 380.156 256.82 380.414 256.364 380.93C255.92 381.434 255.68 382.112 255.644 382.964H254.06C254.108 381.62 254.516 380.582 255.284 379.85C256.052 379.118 257.042 378.752 258.254 378.752C259.49 378.752 260.468 379.094 261.188 379.778C261.92 380.462 262.286 381.404 262.286 382.604C262.286 383.6 261.986 384.572 261.386 385.52C260.798 386.456 260.126 387.284 259.37 388.004C258.614 388.712 257.648 389.54 256.472 390.488H262.664V391.856H254.006V390.686Z" fill="black"/>
<path d="M335.112 379.544V392H333.474V382.712L329.334 392H328.182L324.024 382.694V392H322.386V379.544H324.15L328.758 389.84L333.366 379.544H335.112ZM338.736 380.534C338.424 380.534 338.16 380.426 337.944 380.21C337.728 379.994 337.62 379.73 337.62 379.418C337.62 379.106 337.728 378.842 337.944 378.626C338.16 378.41 338.424 378.302 338.736 378.302C339.036 378.302 339.288 378.41 339.492 378.626C339.708 378.842 339.816 379.106 339.816 379.418C339.816 379.73 339.708 379.994 339.492 380.21C339.288 380.426 339.036 380.534 338.736 380.534ZM339.528 382.136V392H337.89V382.136H339.528ZM347.126 381.956C348.326 381.956 349.298 382.322 350.042 383.054C350.786 383.774 351.158 384.818 351.158 386.186V392H349.538V386.42C349.538 385.436 349.292 384.686 348.8 384.17C348.308 383.642 347.636 383.378 346.784 383.378C345.92 383.378 345.23 383.648 344.714 384.188C344.21 384.728 343.958 385.514 343.958 386.546V392H342.32V382.136H343.958V383.54C344.282 383.036 344.72 382.646 345.272 382.37C345.836 382.094 346.454 381.956 347.126 381.956ZM357.901 381.974C358.753 381.974 359.497 382.16 360.133 382.532C360.781 382.904 361.261 383.372 361.573 383.936V382.136H363.229V392.216C363.229 393.116 363.037 393.914 362.653 394.61C362.269 395.318 361.717 395.87 360.997 396.266C360.289 396.662 359.461 396.86 358.513 396.86C357.217 396.86 356.137 396.554 355.273 395.942C354.409 395.33 353.899 394.496 353.743 393.44H355.363C355.543 394.04 355.915 394.52 356.479 394.88C357.043 395.252 357.721 395.438 358.513 395.438C359.413 395.438 360.145 395.156 360.709 394.592C361.285 394.028 361.573 393.236 361.573 392.216V390.146C361.249 390.722 360.769 391.202 360.133 391.586C359.497 391.97 358.753 392.162 357.901 392.162C357.025 392.162 356.227 391.946 355.507 391.514C354.799 391.082 354.241 390.476 353.833 389.696C353.425 388.916 353.221 388.028 353.221 387.032C353.221 386.024 353.425 385.142 353.833 384.386C354.241 383.618 354.799 383.024 355.507 382.604C356.227 382.184 357.025 381.974 357.901 381.974ZM361.573 387.05C361.573 386.306 361.423 385.658 361.123 385.106C360.823 384.554 360.415 384.134 359.899 383.846C359.395 383.546 358.837 383.396 358.225 383.396C357.613 383.396 357.055 383.54 356.551 383.828C356.047 384.116 355.645 384.536 355.345 385.088C355.045 385.64 354.895 386.288 354.895 387.032C354.895 387.788 355.045 388.448 355.345 389.012C355.645 389.564 356.047 389.99 356.551 390.29C357.055 390.578 357.613 390.722 358.225 390.722C358.837 390.722 359.395 390.578 359.899 390.29C360.415 389.99 360.823 389.564 361.123 389.012C361.423 388.448 361.573 387.794 361.573 387.05ZM370.065 381.974C370.917 381.974 371.661 382.16 372.297 382.532C372.945 382.904 373.425 383.372 373.737 383.936V382.136H375.393V392.216C375.393 393.116 375.201 393.914 374.817 394.61C374.433 395.318 373.881 395.87 373.161 396.266C372.453 396.662 371.625 396.86 370.677 396.86C369.381 396.86 368.301 396.554 367.437 395.942C366.573 395.33 366.063 394.496 365.907 393.44H367.527C367.707 394.04 368.079 394.52 368.643 394.88C369.207 395.252 369.885 395.438 370.677 395.438C371.577 395.438 372.309 395.156 372.873 394.592C373.449 394.028 373.737 393.236 373.737 392.216V390.146C373.413 390.722 372.933 391.202 372.297 391.586C371.661 391.97 370.917 392.162 370.065 392.162C369.189 392.162 368.391 391.946 367.671 391.514C366.963 391.082 366.405 390.476 365.997 389.696C365.589 388.916 365.385 388.028 365.385 387.032C365.385 386.024 365.589 385.142 365.997 384.386C366.405 383.618 366.963 383.024 367.671 382.604C368.391 382.184 369.189 381.974 370.065 381.974ZM373.737 387.05C373.737 386.306 373.587 385.658 373.287 385.106C372.987 384.554 372.579 384.134 372.063 383.846C371.559 383.546 371.001 383.396 370.389 383.396C369.777 383.396 369.219 383.54 368.715 383.828C368.211 384.116 367.809 384.536 367.509 385.088C367.209 385.64 367.059 386.288 367.059 387.032C367.059 387.788 367.209 388.448 367.509 389.012C367.809 389.564 368.211 389.99 368.715 390.29C369.219 390.578 369.777 390.722 370.389 390.722C371.001 390.722 371.559 390.578 372.063 390.29C372.579 389.99 372.987 389.564 373.287 389.012C373.587 388.448 373.737 387.794 373.737 387.05ZM386.909 382.136V392H385.271V390.542C384.959 391.046 384.521 391.442 383.957 391.73C383.405 392.006 382.793 392.144 382.121 392.144C381.353 392.144 380.663 391.988 380.051 391.676C379.439 391.352 378.953 390.872 378.593 390.236C378.245 389.6 378.071 388.826 378.071 387.914V382.136H379.691V387.698C379.691 388.67 379.937 389.42 380.429 389.948C380.921 390.464 381.593 390.722 382.445 390.722C383.321 390.722 384.011 390.452 384.515 389.912C385.019 389.372 385.271 388.586 385.271 387.554V382.136H386.909ZM394.168 382.262C394.252 381.158 394.678 380.294 395.446 379.67C396.214 379.046 397.21 378.734 398.434 378.734C399.25 378.734 399.952 378.884 400.54 379.184C401.14 379.472 401.59 379.868 401.89 380.372C402.202 380.876 402.358 381.446 402.358 382.082C402.358 382.826 402.142 383.468 401.71 384.008C401.29 384.548 400.738 384.896 400.054 385.052V385.142C400.834 385.334 401.452 385.712 401.908 386.276C402.364 386.84 402.592 387.578 402.592 388.49C402.592 389.174 402.436 389.792 402.124 390.344C401.812 390.884 401.344 391.31 400.72 391.622C400.096 391.934 399.346 392.09 398.47 392.09C397.198 392.09 396.154 391.76 395.338 391.1C394.522 390.428 394.066 389.48 393.97 388.256H395.554C395.638 388.976 395.932 389.564 396.436 390.02C396.94 390.476 397.612 390.704 398.452 390.704C399.292 390.704 399.928 390.488 400.36 390.056C400.804 389.612 401.026 389.042 401.026 388.346C401.026 387.446 400.726 386.798 400.126 386.402C399.526 386.006 398.62 385.808 397.408 385.808H396.994V384.44H397.426C398.53 384.428 399.364 384.248 399.928 383.9C400.492 383.54 400.774 382.988 400.774 382.244C400.774 381.608 400.564 381.098 400.144 380.714C399.736 380.33 399.148 380.138 398.38 380.138C397.636 380.138 397.036 380.33 396.58 380.714C396.124 381.098 395.854 381.614 395.77 382.262H394.168Z" fill="black"/>
<path d="M475.112 379.544V392H473.474V382.712L469.334 392H468.182L464.024 382.694V392H462.386V379.544H464.15L468.758 389.84L473.366 379.544H475.112ZM478.736 380.534C478.424 380.534 478.16 380.426 477.944 380.21C477.728 379.994 477.62 379.73 477.62 379.418C477.62 379.106 477.728 378.842 477.944 378.626C478.16 378.41 478.424 378.302 478.736 378.302C479.036 378.302 479.288 378.41 479.492 378.626C479.708 378.842 479.816 379.106 479.816 379.418C479.816 379.73 479.708 379.994 479.492 380.21C479.288 380.426 479.036 380.534 478.736 380.534ZM479.528 382.136V392H477.89V382.136H479.528ZM487.126 381.956C488.326 381.956 489.298 382.322 490.042 383.054C490.786 383.774 491.158 384.818 491.158 386.186V392H489.538V386.42C489.538 385.436 489.292 384.686 488.8 384.17C488.308 383.642 487.636 383.378 486.784 383.378C485.92 383.378 485.23 383.648 484.714 384.188C484.21 384.728 483.958 385.514 483.958 386.546V392H482.32V382.136H483.958V383.54C484.282 383.036 484.72 382.646 485.272 382.37C485.836 382.094 486.454 381.956 487.126 381.956ZM497.901 381.974C498.753 381.974 499.497 382.16 500.133 382.532C500.781 382.904 501.261 383.372 501.573 383.936V382.136H503.229V392.216C503.229 393.116 503.037 393.914 502.653 394.61C502.269 395.318 501.717 395.87 500.997 396.266C500.289 396.662 499.461 396.86 498.513 396.86C497.217 396.86 496.137 396.554 495.273 395.942C494.409 395.33 493.899 394.496 493.743 393.44H495.363C495.543 394.04 495.915 394.52 496.479 394.88C497.043 395.252 497.721 395.438 498.513 395.438C499.413 395.438 500.145 395.156 500.709 394.592C501.285 394.028 501.573 393.236 501.573 392.216V390.146C501.249 390.722 500.769 391.202 500.133 391.586C499.497 391.97 498.753 392.162 497.901 392.162C497.025 392.162 496.227 391.946 495.507 391.514C494.799 391.082 494.241 390.476 493.833 389.696C493.425 388.916 493.221 388.028 493.221 387.032C493.221 386.024 493.425 385.142 493.833 384.386C494.241 383.618 494.799 383.024 495.507 382.604C496.227 382.184 497.025 381.974 497.901 381.974ZM501.573 387.05C501.573 386.306 501.423 385.658 501.123 385.106C500.823 384.554 500.415 384.134 499.899 383.846C499.395 383.546 498.837 383.396 498.225 383.396C497.613 383.396 497.055 383.54 496.551 383.828C496.047 384.116 495.645 384.536 495.345 385.088C495.045 385.64 494.895 386.288 494.895 387.032C494.895 387.788 495.045 388.448 495.345 389.012C495.645 389.564 496.047 389.99 496.551 390.29C497.055 390.578 497.613 390.722 498.225 390.722C498.837 390.722 499.395 390.578 499.899 390.29C500.415 389.99 500.823 389.564 501.123 389.012C501.423 388.448 501.573 387.794 501.573 387.05ZM510.065 381.974C510.917 381.974 511.661 382.16 512.297 382.532C512.945 382.904 513.425 383.372 513.737 383.936V382.136H515.393V392.216C515.393 393.116 515.201 393.914 514.817 394.61C514.433 395.318 513.881 395.87 513.161 396.266C512.453 396.662 511.625 396.86 510.677 396.86C509.381 396.86 508.301 396.554 507.437 395.942C506.573 395.33 506.063 394.496 505.907 393.44H507.527C507.707 394.04 508.079 394.52 508.643 394.88C509.207 395.252 509.885 395.438 510.677 395.438C511.577 395.438 512.309 395.156 512.873 394.592C513.449 394.028 513.737 393.236 513.737 392.216V390.146C513.413 390.722 512.933 391.202 512.297 391.586C511.661 391.97 510.917 392.162 510.065 392.162C509.189 392.162 508.391 391.946 507.671 391.514C506.963 391.082 506.405 390.476 505.997 389.696C505.589 388.916 505.385 388.028 505.385 387.032C505.385 386.024 505.589 385.142 505.997 384.386C506.405 383.618 506.963 383.024 507.671 382.604C508.391 382.184 509.189 381.974 510.065 381.974ZM513.737 387.05C513.737 386.306 513.587 385.658 513.287 385.106C512.987 384.554 512.579 384.134 512.063 383.846C511.559 383.546 511.001 383.396 510.389 383.396C509.777 383.396 509.219 383.54 508.715 383.828C508.211 384.116 507.809 384.536 507.509 385.088C507.209 385.64 507.059 386.288 507.059 387.032C507.059 387.788 507.209 388.448 507.509 389.012C507.809 389.564 508.211 389.99 508.715 390.29C509.219 390.578 509.777 390.722 510.389 390.722C511.001 390.722 511.559 390.578 512.063 390.29C512.579 389.99 512.987 389.564 513.287 389.012C513.587 388.448 513.737 387.794 513.737 387.05ZM526.909 382.136V392H525.271V390.542C524.959 391.046 524.521 391.442 523.957 391.73C523.405 392.006 522.793 392.144 522.121 392.144C521.353 392.144 520.663 391.988 520.051 391.676C519.439 391.352 518.953 390.872 518.593 390.236C518.245 389.6 518.071 388.826 518.071 387.914V382.136H519.691V387.698C519.691 388.67 519.937 389.42 520.429 389.948C520.921 390.464 521.593 390.722 522.445 390.722C523.321 390.722 524.011 390.452 524.515 389.912C525.019 389.372 525.271 388.586 525.271 387.554V382.136H526.909ZM533.808 389.102V387.86L540.126 379.112H542.088V387.68H543.888V389.102H542.088V392H540.468V389.102H533.808ZM540.54 380.822L535.698 387.68H540.54V380.822Z" fill="black"/>
<rect x="0.5" y="359.5" width="6" height="6" stroke="#BEBEBE"/>
</svg>
